<svg width="192" height="43" viewBox="0 0 192 43" fill="none" xmlns="http://www.w3.org/2000/svg"><path d="M44.484 5.207h8.818c4.465 0 7.48 3.684 7.48 7.256 0 3.684-3.015 7.367-7.48 7.367h-5.47v5.917h-3.348V5.207zm8.483 11.498c2.903 0 4.465-2.233 4.465-4.242 0-2.121-1.562-4.242-4.465-4.242h-5.134v8.484h5.134zm8.819 1.562c0-4.353 3.014-7.814 7.702-7.814 4.8 0 7.144 4.019 7.144 8.037v.782H65.135c.446 2.567 2.679 4.018 5.693 4.018 1.897 0 3.46-.558 4.8-1.34v2.791c-1.228.893-3.237 1.452-5.47 1.452-4.688 0-8.372-3.126-8.372-7.926zm11.498-1.563c0-1.563-1.228-3.572-3.907-3.572-2.568 0-4.019 1.786-4.13 3.572h8.037zm6.251-5.914h3.349v5.804h7.59v-5.805h3.35v14.958h-3.35v-6.251h-7.59v6.251h-3.35V10.79zm17.079 7.477c0-4.353 3.014-7.814 7.702-7.814 4.8 0 7.144 4.019 7.144 8.037v.782H99.963c.446 2.567 2.679 4.018 5.693 4.018 1.897 0 3.46-.558 4.8-1.34v2.791c-1.228.893-3.237 1.452-5.47 1.452-4.688 0-8.372-3.126-8.372-7.926zm11.498-1.563c0-1.563-1.228-3.572-3.907-3.572-2.568 0-4.019 1.786-4.131 3.572h8.038zm5.246 1.563c0-4.688 3.684-7.814 8.149-7.814 1.786 0 3.125.335 4.465 1.005v2.79c-1.34-.67-2.567-1.004-4.019-1.004-2.902 0-5.358 2.01-5.358 5.023 0 3.014 2.344 5.023 5.358 5.023 1.675 0 3.014-.334 4.242-1.116v2.79c-1.451.782-2.902 1.229-4.8 1.229-4.353 0-8.037-3.238-8.037-7.926zm14.512 0c0-4.688 3.683-7.814 8.148-7.814 1.787 0 3.126.335 4.466 1.005v2.79c-1.34-.67-2.568-1.004-4.019-1.004-2.902 0-5.358 2.01-5.358 5.023 0 3.014 2.344 5.023 5.358 5.023 1.674 0 3.014-.334 4.242-1.116v2.79c-1.451.782-2.902 1.229-4.8 1.229-4.242 0-8.037-3.238-8.037-7.926zm31.144 4.688v2.456c-.447.335-1.228.447-1.898.447-1.451 0-2.679-.67-3.125-2.121-1.117 1.228-2.903 2.344-5.47 2.344-3.126 0-5.582-1.786-5.582-5.023 0-3.35 2.456-4.354 5.693-4.354h5.135v-.223c0-2.567-2.121-3.237-4.353-3.237-1.786 0-3.572.67-4.688 1.34V11.68c1.116-.558 2.79-1.228 5.469-1.228 4.019 0 6.921 1.898 6.921 5.693v5.581c0 .894.558 1.452 1.228 1.452 0 0 .335 0 .67-.224zm-5.47-3.683h-3.907c-2.121 0-3.572.446-3.572 1.897 0 1.675 1.451 2.233 3.237 2.233s3.461-.893 4.242-1.786v-2.344zm7.814-8.482h3.349v5.804h7.591v-5.805h3.348v14.958h-3.348v-6.251h-7.591v6.251h-3.349V10.79zm17.079 7.477c0-4.688 3.684-7.814 8.149-7.814 1.786 0 3.126.335 4.465 1.005v2.79c-1.339-.67-2.567-1.004-4.019-1.004-2.902 0-5.358 2.01-5.358 5.023 0 3.014 2.345 5.023 5.358 5.023 1.675 0 3.014-.334 4.242-1.116v2.79c-1.451.782-2.902 1.229-4.8 1.229-4.353 0-8.037-3.238-8.037-7.926zM44.484 33.783h1.562v2.902l2.68-2.902h1.897l-3.125 3.349 3.683 4.019h-1.897l-3.126-3.35v3.35h-1.674v-7.368zm8.706 0h3.238c1.563 0 2.567.893 2.567 2.233s-1.004 2.232-2.567 2.232h-1.674v2.903H53.19v-7.368zm3.126 3.126c.67 0 1.116-.335 1.116-.893s-.446-.893-1.116-.893h-1.563v1.786h1.563zm4.912-3.126h5.358v1.34h-3.907v1.45h3.126v1.34h-3.126v1.898h4.13v1.34h-5.581v-7.368zm7.591 6.027h.67c.67-1.004 1.004-2.343 1.004-4.8v-1.115h5.135v6.027h1.004v2.903h-1.45v-1.451h-5.024v1.45h-1.451v-3.013h.112zm5.358 0v-4.688h-2.121c0 1.563-.112 3.126-.782 4.689h2.903zm4.8-6.027h1.563v4.8l3.572-4.8h1.34v7.368H84v-4.8l-3.795 4.8h-1.228v-7.368zm14.735 0v1.34h-2.345v6.028h-1.563v-6.028H87.46v-1.34h6.252zm-87.963 0h-4.8v-20.65C.949 6.1 6.753.294 13.786.294h15.851V13.02c0 7.144-5.805 12.837-12.837 12.837H8.763l1.786-4.8h6.14a8.004 8.004 0 008.037-8.037V5.095H13.674a8.004 8.004 0 00-8.037 8.037v20.651h.112z" fill="#00323C"/></svg>