<svg width="160" height="42" viewBox="0 0 160 42" fill="none" xmlns="http://www.w3.org/2000/svg"><path d="M19.676 33.7l-.116.113c-1.863 1.898-4.019 2.904-6.241 2.904-4.638 0-8.005-3.48-8.005-8.28 0-4.792 3.367-8.277 8.005-8.277 2.222 0 4.378 1.01 6.241 2.914l.116.115 2.983-3.607-.08-.098c-2.48-2.931-5.457-4.358-9.116-4.358-3.672 0-7.028 1.236-9.447 3.464C1.388 21.003 0 24.407 0 28.437c0 4.028 1.388 7.44 4.016 9.853 2.419 2.239 5.775 3.468 9.447 3.468 3.66 0 6.635-1.426 9.116-4.359l.08-.09-2.983-3.608zm5.997 7.566h5.27V15.543h-5.27v25.723zm25.91-5.594c-1.406.857-2.715 1.287-3.89 1.287-1.702 0-2.471-.899-2.471-2.9V20.41h5.366v-4.844h-5.366V7.562l-5.165 2.764v5.24h-4.455v4.844h4.455v14.52c0 3.955 2.343 6.658 5.841 6.728 2.375.047 3.807-.661 4.677-1.178l.05-.038 1.27-4.96-.313.19zm4.364 5.594h5.272V15.543h-5.273v25.723zM145.26 5.755v24.538l1.641-2.555c-.001.01 7.375-10.67 8.32-12.032h3.287c-.699.94-6.499 8.922-6.499 8.922s7.555 15.741 7.991 16.638h-3.228c-.178-.367-6.667-14.106-6.667-14.106l-4.845 6.789v7.317h-3.008V7.473c.263-.151 2.3-1.319 3.008-1.718zm-24.705 12.998c1.551-2.319 3.982-3.597 6.825-3.597 5.671 0 8.676 3.616 8.676 10.46v15.65h-3.015V26.263c0-5.822-2.022-8.524-6.401-8.524-4.192 0-6.695 3.188-6.695 8.524v15.003h-3.006v-25.56h3.006v3.964l.61-.917zm-18.484-3.597c5.835 0 8.671 2.668 8.671 8.158v17.952h-3.008v-3.73l-.585.646c-2.213 2.442-4.754 3.636-7.779 3.636-2.37 0-7.886-.784-7.886-8.06 0-5.948 4.91-8.06 9.509-8.06 2.31 0 4.591.533 6.246 1.46l.495.275v-3.67c0-4.068-1.987-6.128-5.913-6.128-2.421 0-4.606.61-6.847 1.874-.198-.455-.893-1.991-1.086-2.43 2.342-1.234 5.233-1.923 8.183-1.923zm-7.638 18.351c0 3.82 1.98 5.927 5.577 5.927 3.061 0 5.78-1.447 7.668-4.077l.056-.09v-5.604l-.167-.097c-1.919-1.094-3.885-1.535-6.775-1.535-3.978 0-6.359 2.046-6.359 5.476zM71.21 5.755V19.43l.583-.638c2.215-2.447 4.666-3.635 7.485-3.635 5.641 0 8.879 4.701 8.879 12.901 0 8.36-3.677 13.761-9.37 13.761-2.775 0-4.996-1.076-6.991-3.383l-.586-.681v3.512h-3V7.473a477.82 477.82 0 013-1.718zm.072 15.9l-.072.095v13.305l.054.081c1.66 2.568 4.362 4.103 7.238 4.103 4.443 0 6.694-3.744 6.694-11.127 0-6.596-2.494-10.373-6.844-10.373-2.637 0-5.015 1.317-7.07 3.916z" fill="#00323C"/><path fill-rule="evenodd" clip-rule="evenodd" d="M64.376 10.979C59.552 4.146 51.542.069 43.392.069c-8.147 0-16.16 4.077-20.975 10.91l-.247.351h6.074l.067-.073c4.134-4.266 9.53-6.523 15.08-6.523 5.552 0 10.947 2.257 15.089 6.523l.067.073h6.072l-.243-.351z" fill="#00323C"/></svg>