<svg width="160" height="32" viewBox="0 0 160 32" fill="none" xmlns="http://www.w3.org/2000/svg"><path d="M62.662 6.692h4.423v1.511c.475-.413 2.009-1.881 4.84-1.881 3.333 0 5.98 2.46 5.98 6.323v10.027h-4.671v-8.784c0-2.154-1.05-3.431-2.951-3.431-1.841 0-2.95 1.204-2.95 3.43v8.785h-4.67V6.692zm44.501 7.99c0-4.61 3.691-8.36 8.526-8.36 4.833 0 8.523 3.75 8.523 8.36 0 4.609-3.69 8.355-8.523 8.355-4.835 0-8.526-3.746-8.526-8.355zm4.612 0c0 2.207 1.649 4.024 3.941 4.024 2.297 0 3.949-1.817 3.949-4.024 0-2.209-1.652-4.024-3.949-4.024-2.291 0-3.941 1.815-3.941 4.024zM43 14.685c0-4.612 3.694-8.362 8.524-8.362 4.836 0 8.528 3.75 8.528 8.362 0 4.608-3.692 8.352-8.528 8.352-4.83 0-8.524-3.744-8.524-8.352zm4.612-.001c0 2.209 1.65 4.025 3.944 4.025 2.297 0 3.946-1.816 3.946-4.025 0-2.21-1.65-4.024-3.946-4.024-2.295 0-3.944 1.813-3.944 4.024zm99.264-9.762h4.735V.855h-4.735v4.067zm0 17.75h4.735V6.692h-4.735v15.98zm8.387 0H160V.855h-4.737v21.817zm-23.821 0h-4.491V.855h4.542v7.106c.225-.166 1.697-1.64 4.911-1.64 4.205 0 7.714 3.612 7.714 8.364 0 4.744-3.737 8.355-7.767 8.355-3.066 0-4.528-1.347-4.858-1.598l-.051 1.23zm7.877-7.999c0-2.247-1.704-3.99-3.985-3.99-2.268 0-4.01 1.727-4.01 4.003 0 2.247 1.718 3.99 4.005 3.99 2.264 0 3.99-1.75 3.99-4.003zm-123.863 8h5.478l4.924-6.329 3.07 3.11-7.025 8.796H27.4l4.498-5.83 8.467 8.618h6.637L34.832 18.8l9.584-12.108h-5.5l-7.083 9.095-3.065-3.081 7.879-9.923h-5.485L25.78 9.707l-2.923-3.015h-6.544l6.592 6.656-7.45 9.324zM0 .854v21.817h14.369v-4.07h-9.48v-5.213h9.054V9.442H4.888V4.92h9.48V.855H0zm81.648 0v21.817h4.597V6.2h.209l3.955 16.474h5.164L99.621 6.2h.21v16.474h4.596V.855H96.92l-3.737 15.923h-.167L89.371.855h-7.723z" fill="#00323C"/></svg>