<svg width="148" height="33" viewBox="0 0 148 33" fill="none" xmlns="http://www.w3.org/2000/svg"><path fill-rule="evenodd" clip-rule="evenodd" d="M18.495 1.031a15.988 15.988 0 00-16.103 9.01 16 16 0 003.102 18.192 15.99 15.99 0 0027.234-12.92A15.978 15.978 0 0018.495 1.03zm-.519 24.374A8.528 8.528 0 019.2 20.737a8.534 8.534 0 016.242-12.206 8.528 8.528 0 018.92 4.388 8.534 8.534 0 01-6.385 12.486zm23.305-23.74a3.73 3.73 0 00-3.641 4.502c.35 1.759 1.993 2.96 3.782 2.96h10.381L35.647 30.515a1.066 1.066 0 00.846 1.71h25.342c1.788 0 3.431-1.202 3.782-2.961a3.735 3.735 0 00-3.64-4.504h-12.65L65.471 3.39a1.076 1.076 0 00-.854-1.725H41.28zm101.266.085a3.79 3.79 0 00-2.91 3.746v12.426L119.507 1.9a1.071 1.071 0 00-1.736.841v25.658a3.788 3.788 0 002.911 3.746 3.722 3.722 0 004.163-2.034c.24-.503.365-1.054.364-1.612V15.964l20.13 16.024a1.072 1.072 0 001.736-.842V5.395a3.732 3.732 0 00-2.875-3.633 3.729 3.729 0 00-1.653-.012zM90.135 8.413c8.514 0 14.876 4.501 14.876 8.527 0 4.026-6.362 8.526-14.876 8.526s-14.876-4.5-14.876-8.526 6.362-8.527 14.876-8.527zm0-7.463C77.811.95 67.82 8.11 67.82 16.94s9.99 15.99 22.315 15.99c12.324 0 22.314-7.16 22.314-15.99 0-8.831-9.99-15.99-22.314-15.99z" fill="#00323C"/></svg>