<svg width="150" height="49" viewBox="0 0 150 49" fill="none" xmlns="http://www.w3.org/2000/svg"><path d="M5.09 44.269H3.171v4.409H.68V35.949h5.1a4.205 4.205 0 014.217 4.218c0 1.61-.997 3.028-2.454 3.718l2.799 4.793H7.62l-2.53-4.41zm-1.918-2.186h2.57c.958 0 1.724-.843 1.724-1.878s-.766-1.879-1.725-1.879H3.172v3.757zm12.652 4.715c.92 0 1.649-.383 2.032-.92l1.879 1.074c-.844 1.227-2.224 1.955-3.95 1.955-3.066 0-4.983-2.109-4.983-4.792 0-2.722 1.955-4.793 4.792-4.793 2.684 0 4.6 2.109 4.6 4.793 0 .345-.038.651-.076.958h-6.863c.307 1.227 1.342 1.725 2.57 1.725zm2.032-3.527c-.307-1.303-1.265-1.84-2.262-1.84-1.265 0-2.108.69-2.377 1.84h4.64zm10.467 2.76c0 1.955-1.726 2.914-3.643 2.914-1.802 0-3.143-.767-3.834-2.147l2.032-1.15c.269.728.882 1.188 1.764 1.188.728 0 1.265-.268 1.265-.767 0-1.342-4.677-.613-4.677-3.795 0-1.84 1.572-2.876 3.45-2.876 1.457 0 2.76.69 3.45 1.917l-1.993 1.074c-.268-.575-.767-.92-1.457-.92-.575 0-1.035.268-1.035.728 0 1.342 4.678.499 4.678 3.834zm5.904.767c.92 0 1.648-.383 2.032-.92l1.878 1.074c-.843 1.227-2.223 1.955-3.949 1.955-3.067 0-4.984-2.109-4.984-4.792 0-2.722 1.956-4.793 4.793-4.793 2.683 0 4.6 2.109 4.6 4.793 0 .345-.038.651-.076.958h-6.863c.345 1.227 1.342 1.725 2.569 1.725zm2.032-3.527c-.307-1.303-1.266-1.84-2.262-1.84-1.266 0-2.109.69-2.377 1.84h4.639zm13.15-3.68v9.087H47.07v-1.074c-.651.805-1.648 1.342-2.952 1.342-2.415 0-4.409-2.109-4.409-4.792 0-2.722 1.994-4.793 4.41-4.793 1.341 0 2.3.499 2.951 1.342V39.63l2.339-.039zm-2.339 4.563c0-1.534-1.073-2.569-2.53-2.569-1.419 0-2.492 1.035-2.492 2.569 0 1.533 1.073 2.568 2.492 2.568 1.457 0 2.53-1.035 2.53-2.568zm9.585-4.716v2.606c-1.227-.153-2.76.384-2.76 2.3v4.333h-2.34v-9.086h2.34v1.572c.46-1.227 1.61-1.725 2.76-1.725zm.537 4.716c0-2.722 2.032-4.793 4.792-4.793 1.764 0 3.335.959 4.064 2.339l-2.032 1.188c-.345-.728-1.15-1.226-2.07-1.226-1.38 0-2.416 1.035-2.416 2.492 0 1.418 1.035 2.453 2.416 2.453.958 0 1.725-.46 2.108-1.188l2.032 1.15c-.766 1.418-2.338 2.377-4.102 2.377-2.76 0-4.792-2.109-4.792-4.792zm18.632-1.036v5.598h-2.338v-5.29c0-1.228-.729-1.88-1.802-1.88-1.15 0-1.994.69-1.994 2.263v4.907h-2.339V35.949h2.339v4.64c.537-.806 1.495-1.266 2.722-1.266 1.917.038 3.412 1.38 3.412 3.795zm-47.961-24.23c-.077-5.52-4.448-9.968-9.854-9.968-5.405 0-9.776 4.447-9.853 9.968v9.815h4.946v-9.7c0-2.875 2.262-5.176 5.06-5.176 2.8 0 4.832 2.3 4.832 5.176v9.661h4.945c-.076 0-.076-9.738-.076-9.776zm41.98-10.006v1.188c-1.533-.92-3.297-1.457-5.175-1.457a10.112 10.112 0 00-10.122 10.122 10.112 10.112 0 0010.122 10.121 9.92 9.92 0 005.175-1.457v1.265h4.946V8.882h-4.946zM64.668 23.91a5.179 5.179 0 01-5.176-5.175c0-2.837 2.339-5.176 5.176-5.176s5.175 2.339 5.175 5.176a5.179 5.179 0 01-5.175 5.175zm-22.007-5.06v9.816h4.946v-9.662c0-2.875 2.07-5.176 4.946-5.176V8.883c-5.56 0-9.815 4.447-9.892 9.968zM5.626 1.406H.68v27.259h4.946V1.406zm34.582 4.985V1.445c-5.56 0-9.815 4.486-9.892 10.007v17.214h4.946v-9.93h4.946v-4.907h-4.946v-2.224c0-2.875 2.07-5.214 4.946-5.214zm86.453 12.421c-.077-5.521-4.447-9.968-9.853-9.968s-9.776 3.987-9.853 9.508v10.351h4.907v-9.776c0-2.876 2.147-5.176 4.946-5.176s4.946 2.3 4.946 5.176v9.738h4.945c-.038 0-.038-9.815-.038-9.853zm-27.297-3.835c0-5.252-3.757-8.971-8.55-8.971-4.792 0-8.549 3.719-8.549 8.971 0 5.214 3.757 8.933 8.55 8.933 4.792 0 8.55-3.719 8.55-8.933zm-22.121 0C77.243 7.08 83.262.945 90.815.945c7.552 0 13.61 6.135 13.61 14.032 0 7.86-6.058 14.032-13.61 14.032-7.553 0-13.572-6.172-13.572-14.032zm71.846 1.342c-1.035-4.562-5.06-7.936-9.853-7.936a9.786 9.786 0 00-5.137 1.457 10.289 10.289 0 00-4.946 8.166c0 .23-.038.46-.038.69 0 1.917.537 3.719 1.419 5.29 1.763 2.991 4.984 5.023 8.664 5.023h.077c2.837-.038 6.249-1.303 8.089-3.259l-3.22-3.527c-3.527 3.719-9.048 1.15-9.738-1.418h14.645c.307-.882.345-3.413.038-4.486zm-14.722.652a5.122 5.122 0 014.869-3.566 5.121 5.121 0 014.869 3.566h-9.738z" fill="#00323C"/></svg>