<svg width="196" height="75" viewBox="0 0 196 75" fill="none" xmlns="http://www.w3.org/2000/svg"><path d="M79.091 15.257h2.16v6.24h-2.592v-3.552H65.795V.905h2.832v14.352h7.632V.905h2.832v14.352zm9.79 2.928c-1.792 0-3.264-.584-4.416-1.752-1.152-1.184-1.728-2.68-1.728-4.488 0-1.808.568-3.296 1.704-4.464 1.136-1.184 2.624-1.776 4.464-1.776 1.856 0 3.352.648 4.488 1.944 1.136 1.28 1.64 2.928 1.512 4.944h-9.552c.032.928.384 1.704 1.056 2.328.672.624 1.528.936 2.568.936 1.472 0 2.48-.56 3.024-1.68h2.76c-.368 1.168-1.072 2.128-2.112 2.88-1.04.752-2.296 1.128-3.768 1.128zm-.048-10.272c-.864 0-1.608.248-2.232.744-.608.48-1 1.168-1.176 2.064h6.648c-.192-.928-.584-1.624-1.176-2.088a3.18 3.18 0 00-2.064-.72zm8.783 10.032v-12h2.64v4.752h5.784V5.945h2.64v12h-2.64V13.05h-5.784v4.896h-2.64zm16.857 0V8.297h-3.6V5.945h10.008v2.352h-3.768v9.648h-2.64zm11.259 5.016h-2.64V5.945h2.64v1.608c.368-.512.896-.944 1.584-1.296a4.849 4.849 0 012.28-.552c1.632 0 3 .608 4.104 1.824 1.12 1.216 1.68 2.688 1.68 4.416 0 1.728-.56 3.2-1.68 4.416-1.104 1.216-2.472 1.824-4.104 1.824a5.027 5.027 0 01-2.28-.528c-.688-.368-1.216-.808-1.584-1.32v6.624zm3.384-7.176c1.04 0 1.896-.368 2.568-1.104.672-.736 1.008-1.648 1.008-2.736 0-1.088-.336-2-1.008-2.736-.672-.736-1.528-1.104-2.568-1.104-1.056 0-1.92.368-2.592 1.104-.672.736-1.008 1.648-1.008 2.736 0 1.088.336 2 1.008 2.736.672.736 1.536 1.104 2.592 1.104zM6.393 46.185c-1.952 0-3.48-.64-4.584-1.92C.705 42.985.153 41.273.153 39.13v-.96c0-2.976.56-5.192 1.68-6.648 1.136-1.456 2.904-2.416 5.304-2.88l4.344-.792v2.52l-3.768.672c-1.568.288-2.728.8-3.48 1.536-.736.736-1.192 1.808-1.368 3.216.992-1.152 2.312-1.728 3.96-1.728 1.76 0 3.176.568 4.248 1.704 1.072 1.12 1.608 2.496 1.608 4.128 0 1.76-.608 3.248-1.824 4.464-1.2 1.216-2.688 1.824-4.464 1.824zm-2.616-3.48c.672.688 1.536 1.032 2.592 1.032s1.92-.344 2.592-1.032c.688-.704 1.032-1.624 1.032-2.76 0-1.008-.344-1.848-1.032-2.52-.672-.672-1.528-1.008-2.568-1.008-1.056 0-1.92.344-2.592 1.032-.672.688-1.008 1.52-1.008 2.496 0 1.136.328 2.056.984 2.76zm13.949 3.24h-2.352v-12h2.64v7.992l6.12-7.992h2.352v12h-2.64v-7.992l-6.12 7.992zm22.208-1.56c-1.2 1.2-2.688 1.8-4.465 1.8-1.776 0-3.272-.6-4.488-1.8-1.2-1.216-1.8-2.696-1.8-4.44 0-1.744.6-3.216 1.8-4.416 1.216-1.216 2.712-1.824 4.488-1.824 1.776 0 3.264.608 4.465 1.824 1.216 1.2 1.824 2.672 1.824 4.416 0 1.744-.608 3.224-1.825 4.44zm-4.465-.648c1.04 0 1.896-.36 2.569-1.08.688-.736 1.032-1.64 1.032-2.712 0-1.072-.345-1.968-1.032-2.688-.672-.736-1.528-1.104-2.569-1.104-1.056 0-1.928.368-2.616 1.104-.672.72-1.008 1.616-1.008 2.688s.337 1.976 1.008 2.712c.688.72 1.56 1.08 2.616 1.08zm8.944-9.792h2.304l4.2 5.472 4.248-5.472h2.304v12h-2.64v-7.848l-3.888 5.04-3.888-5.04v7.848h-2.64v-12zm21.92 12.24c-1.791 0-3.263-.584-4.415-1.752-1.152-1.184-1.728-2.68-1.728-4.488 0-1.808.568-3.296 1.704-4.464 1.136-1.184 2.624-1.776 4.464-1.776 1.856 0 3.352.648 4.488 1.944 1.136 1.28 1.64 2.928 1.512 4.944h-9.552c.032.928.384 1.704 1.056 2.328.672.624 1.528.936 2.568.936 1.472 0 2.48-.56 3.024-1.68h2.76c-.368 1.168-1.072 2.128-2.112 2.88-1.04.752-2.296 1.128-3.768 1.128zm-.047-10.272c-.864 0-1.608.248-2.232.744-.608.48-1 1.168-1.176 2.064h6.648c-.192-.928-.584-1.624-1.176-2.088a3.18 3.18 0 00-2.064-.72zm10.757 10.032v-9.648h-3.6v-2.352h10.008v2.352h-3.768v9.648h-2.64zm11.26 5.016h-2.64V33.945h2.64v1.608c.368-.512.896-.944 1.584-1.296a4.849 4.849 0 012.28-.552c1.632 0 3 .608 4.104 1.824 1.12 1.216 1.68 2.688 1.68 4.416 0 1.728-.56 3.2-1.68 4.416-1.104 1.216-2.472 1.824-4.104 1.824a5.027 5.027 0 01-2.28-.528c-.688-.368-1.216-.808-1.584-1.32v6.624zm3.384-7.176c1.04 0 1.896-.368 2.568-1.104.672-.736 1.008-1.648 1.008-2.736 0-1.088-.336-2-1.008-2.736-.672-.736-1.528-1.104-2.568-1.104-1.056 0-1.92.368-2.592 1.104-.672.736-1.008 1.648-1.008 2.736 0 1.088.336 2 1.008 2.736.672.736 1.536 1.104 2.592 1.104zm11.304 2.16h-2.352v-12h2.64v7.992l6.12-7.992h2.352v12h-2.64v-7.992l-6.12 7.992zm22.04 0h-2.64v-5.232c-.304.432-.768.776-1.392 1.032-.624.256-1.336.384-2.136.384-1.312 0-2.376-.392-3.192-1.176-.816-.784-1.224-1.904-1.224-3.36v-3.648h2.64v3.36c0 1.648.824 2.472 2.472 2.472.736 0 1.392-.248 1.968-.744.576-.496.864-1.232.864-2.208v-2.88h2.64v12zm8.85.24c-1.792 0-3.264-.584-4.416-1.752-1.152-1.184-1.728-2.68-1.728-4.488 0-1.808.568-3.296 1.704-4.464 1.136-1.184 2.624-1.776 4.464-1.776 1.856 0 3.352.648 4.488 1.944 1.136 1.28 1.64 2.928 1.512 4.944h-9.552c.032.928.384 1.704 1.056 2.328.672.624 1.528.936 2.568.936 1.472 0 2.48-.56 3.024-1.68h2.76c-.368 1.168-1.072 2.128-2.112 2.88-1.04.752-2.296 1.128-3.768 1.128zm-.048-10.272c-.864 0-1.608.248-2.232.744-.608.48-1 1.168-1.176 2.064h6.648c-.192-.928-.584-1.624-1.176-2.088a3.18 3.18 0 00-2.064-.72zm14.207 10.272c-1.808 0-3.312-.6-4.512-1.8-1.184-1.216-1.776-2.696-1.776-4.44 0-1.744.592-3.216 1.776-4.416 1.2-1.216 2.704-1.824 4.512-1.824 1.552 0 2.872.432 3.96 1.296a5.812 5.812 0 012.136 3.336h-2.784a3.188 3.188 0 00-1.248-1.608c-.576-.416-1.264-.624-2.064-.624-1.056 0-1.92.36-2.592 1.08-.672.72-1.008 1.64-1.008 2.76 0 1.12.336 2.04 1.008 2.76.672.72 1.536 1.08 2.592 1.08.8 0 1.488-.2 2.064-.6a3.315 3.315 0 001.248-1.632h2.784A5.812 5.812 0 01152 44.89c-1.088.864-2.408 1.296-3.96 1.296zm16.559-.24l-5.328-5.112v5.112h-2.64v-12h2.64v5.136l4.728-5.136h3.216l-5.448 5.904 6.312 6.096h-3.48zm7.275 0h-2.352v-12h2.64v7.992l6.12-7.992h2.352v12h-2.64v-7.992l-6.12 7.992zm20.36 0l-3.24-4.056-3.24 4.056h-3.216l4.776-5.976-4.512-6.024h3.144l3.024 4.032 3.024-4.032h3.168l-4.512 6.024 4.776 5.976h-3.192zm-155.187 28v-9.648h-3.6v-2.352h10.008v2.352h-3.768v9.648h-2.64zm13.596.24c-1.793 0-3.264-.584-4.416-1.752-1.152-1.184-1.728-2.68-1.728-4.488 0-1.808.567-3.296 1.703-4.464 1.137-1.184 2.625-1.776 4.465-1.776 1.855 0 3.352.648 4.487 1.944 1.136 1.28 1.64 2.928 1.512 4.944h-9.551c.032.928.383 1.704 1.055 2.328.672.624 1.529.936 2.569.936 1.472 0 2.48-.56 3.024-1.68h2.76c-.369 1.168-1.073 2.128-2.113 2.88-1.04.752-2.295 1.128-3.767 1.128zm-.049-10.272c-.864 0-1.608.248-2.232.744-.608.48-1 1.168-1.175 2.064h6.648c-.193-.928-.584-1.624-1.177-2.088a3.18 3.18 0 00-2.064-.72zm16.238 10.032l-3.24-4.056-3.24 4.056h-3.216l4.776-5.976-4.512-6.024h3.144l3.024 4.032 3.024-4.032h3.168l-4.512 6.024 4.776 5.976h-3.192zm5.085 0v-12h2.64v4.752h5.784v-4.752h2.64v12h-2.64V69.05h-5.784v4.896h-2.64zm24.513-1.56c-1.2 1.2-2.688 1.8-4.464 1.8-1.776 0-3.272-.6-4.488-1.8-1.2-1.216-1.8-2.696-1.8-4.44 0-1.744.6-3.216 1.8-4.416 1.216-1.216 2.712-1.824 4.488-1.824 1.776 0 3.264.608 4.464 1.824 1.216 1.2 1.824 2.672 1.824 4.416 0 1.744-.608 3.224-1.824 4.44zm-4.464-.648c1.04 0 1.896-.36 2.568-1.08.688-.736 1.032-1.64 1.032-2.712 0-1.072-.344-1.968-1.032-2.688-.672-.736-1.528-1.104-2.568-1.104-1.056 0-1.928.368-2.616 1.104-.672.72-1.008 1.616-1.008 2.688s.336 1.976 1.008 2.712c.688.72 1.56 1.08 2.616 1.08zm8.732 2.4c-.592 0-1.024-.032-1.296-.096v-2.28c.352.032.616.048.792.048.496 0 .864-.16 1.104-.48.24-.336.36-.92.36-1.752v-7.632h9.768v12h-2.64v-9.648h-4.488v5.688c0 1.36-.344 2.392-1.032 3.096-.672.704-1.528 1.056-2.568 1.056zm24.161-1.752c-1.2 1.2-2.688 1.8-4.464 1.8-1.776 0-3.272-.6-4.488-1.8-1.2-1.216-1.8-2.696-1.8-4.44 0-1.744.6-3.216 1.8-4.416 1.216-1.216 2.712-1.824 4.488-1.824 1.776 0 3.264.608 4.464 1.824 1.216 1.2 1.824 2.672 1.824 4.416 0 1.744-.608 3.224-1.824 4.44zm-4.464-.648c1.04 0 1.896-.36 2.568-1.08.688-.736 1.032-1.64 1.032-2.712 0-1.072-.344-1.968-1.032-2.688-.672-.736-1.528-1.104-2.568-1.104-1.056 0-1.928.368-2.616 1.104-.672.72-1.008 1.616-1.008 2.688s.336 1.976 1.008 2.712c.688.72 1.56 1.08 2.616 1.08zm8.944 2.208v-12h7.872v2.352h-5.232v9.648h-2.64zm12.406 0h-2.352v-12h2.64v7.992l6.12-7.992h2.352v12h-2.64v-7.992l-6.12 7.992zm14.672 0h-2.352v-12h2.64v7.992l6.12-7.992h2.352v12h-2.64v-7.992l-6.12 7.992zm6.216-14.736c-.752.72-1.696 1.08-2.832 1.08s-2.088-.36-2.856-1.08c-.752-.736-1.128-1.704-1.128-2.904v-.36h1.872v.36c0 .736.2 1.32.6 1.752.4.416.904.624 1.512.624s1.112-.208 1.512-.624c.4-.432.6-1.016.6-1.752v-.36h1.872v.36c0 1.2-.384 2.168-1.152 2.904z" fill="#00323C"/></svg>