<svg width="125" height="37" viewBox="0 0 125 37" fill="none" xmlns="http://www.w3.org/2000/svg"><path fill-rule="evenodd" clip-rule="evenodd" d="M108.817.945L96.292 26.612h5.05l1.824-3.896h11.438l-1.373-3.393h-8.474l5.802-12.529 9.224 19.818h5.05L112.31.945h-3.493zm-95.597 0L.691 26.612h5.052l1.827-3.896h11.432l-1.37-3.393h-8.47l5.8-12.529 9.223 19.818h5.047L16.713.945h-3.494zm47.619 0L48.314 26.612h5.05l1.824-3.896h11.438l-1.373-3.393H56.78l5.803-12.529 9.224 19.818h5.048L64.332.945H60.84zm-12.832 0L38.786 21.14 29.558.945H24.52l12.515 25.667h3.499L53.054.945h-5.047zm48.083 0l-9.606 20.572L77.64.945h-5.046l11.389 25.667-4.964 9.636h4.829L101.13.945h-5.04z" fill="#00323C"/></svg>