<svg xmlns="http://www.w3.org/2000/svg"><symbol viewBox="0 0 22 7" id="icon-a" xmlns="http://www.w3.org/2000/svg"><path d="M13.647 5.078C12.37 6 10.52 6.491 8.926 6.491c-2.234 0-4.246-.809-5.768-2.154-.12-.106-.012-.25.131-.168 1.643.935 3.673 1.498 5.77 1.498a11.7 11.7 0 004.403-.88c.216-.09.397.138.185.291z"/><path d="M14.177 4.484c-.163-.205-1.079-.097-1.49-.05-.126.016-.145-.09-.032-.168.73-.502 1.928-.357 2.067-.189.14.17-.036 1.345-.722 1.906-.105.086-.206.04-.159-.074.154-.377.5-1.22.336-1.425zM12.713.717V.228c0-.074.058-.124.126-.124h2.236c.071 0 .129.051.129.124v.419c-.001.07-.061.162-.168.307l-1.159 1.619c.43-.01.885.052 1.275.267.088.05.112.12.119.19v.522c0 .071-.08.155-.165.111a2.624 2.624 0 00-2.361.004c-.078.041-.16-.041-.16-.112v-.496c0-.08.002-.215.083-.336L14.01.84h-1.168c-.072 0-.129-.05-.129-.123zM4.562 3.766h-.68a.127.127 0 01-.122-.113V.237c0-.069.059-.123.131-.123h.635a.127.127 0 01.123.114v.447h.012c.166-.432.477-.633.896-.633.425 0 .691.201.882.633.165-.432.539-.633.94-.633.285 0 .597.115.787.373.215.288.171.705.171 1.072v2.156a.127.127 0 01-.132.123h-.679a.127.127 0 01-.122-.123v-1.81c0-.145.013-.505-.02-.641-.05-.23-.202-.294-.4-.294a.452.452 0 00-.406.28c-.07.172-.063.46-.063.654v1.81a.127.127 0 01-.131.124h-.68a.127.127 0 01-.122-.123v-1.81c0-.382.064-.943-.42-.943-.488 0-.47.547-.47.942v1.81a.127.127 0 01-.13.124zM17.13.042c1.008 0 1.555.848 1.555 1.927 0 1.042-.604 1.869-1.556 1.869-.99 0-1.53-.849-1.53-1.906 0-1.063.546-1.89 1.53-1.89zm.005.697c-.501 0-.533.669-.533 1.086 0 .417-.006 1.309.527 1.309.527 0 .552-.72.552-1.158 0-.288-.012-.633-.101-.906-.077-.238-.229-.33-.445-.33zm2.858 3.027h-.677a.127.127 0 01-.122-.123L19.193.225c.005-.062.062-.111.13-.111h.631a.13.13 0 01.122.095v.523h.012c.19-.467.457-.69.927-.69.305 0 .602.108.794.402.178.274.178.734.178 1.064v2.15a.13.13 0 01-.131.108h-.683a.127.127 0 01-.12-.107V1.803c0-.374.044-.92-.426-.92a.444.444 0 00-.393.273c-.095.209-.108.417-.108.647v1.84c0 .068-.06.123-.133.123zM10.93 2.134V1.99c-.49 0-1.01.103-1.01.67 0 .288.152.483.413.483.191 0 .363-.115.47-.303.135-.23.128-.446.128-.706zm.687 1.623a.144.144 0 01-.161.016c-.226-.183-.266-.269-.39-.444-.373.373-.637.484-1.121.484-.572 0-1.018-.345-1.018-1.037 0-.54.3-.908.725-1.088.37-.16.885-.187 1.279-.231V1.37c0-.158.012-.345-.082-.482-.084-.122-.242-.173-.382-.173-.26 0-.49.13-.547.4-.012.06-.057.119-.118.122l-.66-.07c-.055-.012-.116-.056-.101-.14C9.193.246 9.915.01 10.56.01c.332 0 .764.086 1.025.331.331.303.3.706.3 1.146v1.037c0 .312.132.449.256.617.044.06.053.132-.002.177-.139.113-.386.324-.521.442l-.002-.002zm-9.6-1.623V1.99c-.492 0-1.011.103-1.011.67 0 .288.152.483.413.483.191 0 .363-.115.47-.303.135-.23.128-.446.128-.706zm.686 1.623a.144.144 0 01-.161.016c-.226-.183-.266-.269-.39-.444-.373.373-.637.484-1.121.484-.572 0-1.018-.345-1.018-1.037 0-.54.3-.908.725-1.088.37-.16.885-.187 1.279-.231V1.37c0-.158.012-.345-.082-.482C1.85.766 1.693.715 1.553.715c-.26 0-.49.13-.547.4-.012.06-.057.119-.118.122l-.66-.07c-.055-.012-.117-.056-.101-.14C.279.246 1 .01 1.647.01c.332 0 .764.086 1.025.331.331.303.3.706.3 1.146v1.037c0 .312.131.449.256.617.044.06.053.132-.002.177-.139.113-.386.324-.521.442l-.002-.002z"/></symbol><symbol viewBox="0 0 12 14.33" id="icon-address" xmlns="http://www.w3.org/2000/svg"><path d="M6 14.33c-.15 0-.29-.04-.42-.13C5.35 14.05 0 10.43 0 5.99c0-1.6.62-3.11 1.76-4.24C2.89.62 4.4 0 6 0s3.11.62 4.24 1.76A5.97 5.97 0 0112 6c0 4.43-5.36 8.05-5.58 8.21-.13.08-.27.13-.42.13zM6 1.5c-1.2 0-2.33.47-3.18 1.32C1.97 3.67 1.5 4.8 1.5 6c0 2.99 3.31 5.76 4.5 6.66C7.19 11.76 10.5 9 10.5 6c0-1.2-.47-2.33-1.32-3.18A4.471 4.471 0 006 1.5z"/></symbol><symbol viewBox="0 0 19 25" id="icon-architect" xmlns="http://www.w3.org/2000/svg"><path fill-rule="evenodd" clip-rule="evenodd" d="M9.075 4.846c-1.448 0-2.668 1.214-2.668 2.771s1.22 2.772 2.668 2.772c1.448 0 2.668-1.215 2.668-2.772 0-1.557-1.22-2.771-2.668-2.771zM4.407 7.617c0-2.609 2.064-4.771 4.668-4.771s4.668 2.162 4.668 4.771-2.064 4.772-4.668 4.772-4.668-2.163-4.668-4.772z"/><path fill-rule="evenodd" clip-rule="evenodd" d="M8.075 3.845V0h2v3.845h-2zm7.243 20.22l-5.201-12.89 1.855-.748 5.2 12.89-1.854.748zM.803 23.316l5.209-12.89 1.854.75-5.208 12.89-1.855-.75z"/><path fill-rule="evenodd" clip-rule="evenodd" d="M3.829 18.103l.506-.862c.507-.862.506-.863.506-.863h-.002l.008.004.044.024a8.924 8.924 0 00.99.44c.69.258 1.665.536 2.807.621 2.244.167 5.195-.404 7.976-3.542l1.497 1.326c-3.246 3.662-6.834 4.417-9.621 4.21a12.257 12.257 0 01-3.36-.742 10.921 10.921 0 01-1.24-.554 4.81 4.81 0 01-.077-.042l-.023-.013-.007-.004-.003-.002h-.001z"/></symbol><symbol viewBox="0 0 42 40" id="icon-bulb" xmlns="http://www.w3.org/2000/svg"><path fill-rule="evenodd" clip-rule="evenodd" d="M18.01 29.58v4.955a3.158 3.158 0 006.315 0V29.58h2v4.956a5.158 5.158 0 11-10.316 0V29.58h2z"/><path fill-rule="evenodd" clip-rule="evenodd" d="M21.5 30a8.5 8.5 0 100-17 8.5 8.5 0 000 17zm0 2C27.299 32 32 27.299 32 21.5S27.299 11 21.5 11 11 15.701 11 21.5 15.701 32 21.5 32zM22 0v6h-2V0h2zM7.277 5.613l3.11 4.664-1.664 1.11-3.11-4.664 1.664-1.11zM0 20h6v2H0v-2zm36 0h6v2h-6v-2zm.387-13.277l-3.11 4.664-1.664-1.11 3.11-4.664 1.664 1.11z"/></symbol><symbol viewBox="0 0 16 22" id="icon-cafe-1" xmlns="http://www.w3.org/2000/svg"><path fill-rule="evenodd" clip-rule="evenodd" d="M10.393 1.033v6.574a2.032 2.032 0 004.065 0V1.033h1.5v6.574a3.532 3.532 0 01-7.065 0V1.033h1.5z"/><path fill-rule="evenodd" clip-rule="evenodd" d="M13.176 1.665v19.65h-1.5V1.664h1.5zm-7.342.322L1.982 4.426v5.895l3.132 1.453a.75.75 0 01.435.68v8.764h-1.5v-8.285L.916 11.48a.75.75 0 01-.434-.68V4.013a.75.75 0 01.349-.634L5.03.72l.803 1.268z"/></symbol><symbol viewBox="0 0 19 24" id="icon-cafe-2" xmlns="http://www.w3.org/2000/svg"><path fill-rule="evenodd" clip-rule="evenodd" d="M5.49.976l.928 1.61a1.858 1.858 0 01-.68 2.537.358.358 0 00-.13.488l.928 1.61-1.299.75-.929-1.61a1.858 1.858 0 01.68-2.537.358.358 0 00.131-.489L4.19 1.726l1.3-.75zM.25 9.422h15.5v.75c0 .102 0 .206-.003.31.744.12 1.45.424 1.998.92.756.683 1.155 1.69.953 2.894-.401 2.38-2.746 3.626-4.698 3.626h-.308c-1.221 1.764-3.073 3-5.692 3-2.947 0-4.922-1.565-6.122-3.687C.7 15.15.25 12.508.25 10.172v-.75zm14.303 6.956c1.28-.2 2.455-1.08 2.665-2.33.118-.702-.104-1.195-.48-1.535-.27-.245-.645-.429-1.079-.522-.15 1.496-.498 3.025-1.106 4.387zM1.767 10.922c.087 1.96.523 3.993 1.417 5.575.988 1.749 2.513 2.925 4.816 2.925s3.828-1.176 4.816-2.925c.894-1.582 1.33-3.614 1.417-5.575H1.767zM10.489.976l-1.299.75.93 1.61c.098.17.04.389-.132.488a1.858 1.858 0 00-.68 2.537l.93 1.61 1.298-.75-.929-1.61a.358.358 0 01.131-.488 1.858 1.858 0 00.68-2.538L10.49.976zM4.25 22.422h7.5v1.5h-7.5v-1.5z"/></symbol><symbol viewBox="0 0 23 17" id="icon-cafe-3" xmlns="http://www.w3.org/2000/svg"><path fill-rule="evenodd" clip-rule="evenodd" d="M16.255.41l6.216 16.018-1.399.543-5.192-13.38-4.378 6.332-4.404-6.334L1.93 16.97l-1.4-.54L6.716.412l4.782 6.877L16.255.41zm-7.79 10.056l3.05 3.514 3.213-3.513 2.365 5.954-1.393.554-1.482-3.728-2.733 2.988-2.592-2.987-1.623 3.74-1.376-.598 2.571-5.924z"/></symbol><symbol viewBox="0 0 18 20" id="icon-cafe-4" xmlns="http://www.w3.org/2000/svg"><path fill-rule="evenodd" clip-rule="evenodd" d="M7.5 1.75a3.25 3.25 0 00-3.24 3.506.75.75 0 01-.442.743 3.381 3.381 0 104.156 5.011.75.75 0 011.184-.062 3.75 3.75 0 102.328-6.162.75.75 0 01-.83-.564A3.252 3.252 0 007.5 1.75zM2.752 4.86a4.75 4.75 0 019.165-1.609H12a5.25 5.25 0 11-3.356 9.287A4.88 4.88 0 112.752 4.86z"/><path fill-rule="evenodd" clip-rule="evenodd" d="M9.25 11.642v8.108h-1.5v-8.108h1.5z"/></symbol><symbol viewBox="0 0 18 18" id="icon-cafe-5" xmlns="http://www.w3.org/2000/svg"><path fill-rule="evenodd" clip-rule="evenodd" d="M.25 7.25h17.5v3.082l-1.724 1.57-1.438 5.849H3.412L1.974 11.9.25 10.333V7.251zm1.5 1.5v.92l1.572 1.43 1.266 5.15h8.824l1.266-5.15 1.572-1.43v-.92H1.75z"/><path fill-rule="evenodd" clip-rule="evenodd" d="M7.75 10.25v4.5h-1.5v-4.5h1.5zm4 0v4.5h-1.5v-4.5h1.5zM7.06 2L3 6.063 1.94 5 6 .94 7.06 2zm3.88 0L15 6.063 16.06 5 12 .94 10.94 2z"/></symbol><symbol viewBox="0 0 32 37" id="icon-calendar" xmlns="http://www.w3.org/2000/svg"><path fill-rule="evenodd" clip-rule="evenodd" d="M4.333 6.166A2.333 2.333 0 002 8.499v23.334a2.333 2.333 0 002.333 2.333h23.334A2.333 2.333 0 0030 31.833V8.499a2.333 2.333 0 00-2.333-2.333H4.333zM0 8.499a4.333 4.333 0 014.333-4.333h23.334A4.333 4.333 0 0132 8.499v23.334a4.333 4.333 0 01-4.333 4.333H4.333A4.333 4.333 0 010 31.833V8.499z"/><path fill-rule="evenodd" clip-rule="evenodd" d="M22.667.834a1 1 0 011 1v6.667a1 1 0 11-2 0V1.834a1 1 0 011-1zm-13.334 0a1 1 0 011 1v6.667a1 1 0 01-2 0V1.834a1 1 0 011-1zM0 15.166a1 1 0 011-1h30a1 1 0 110 2H1a1 1 0 01-1-1z"/></symbol><symbol viewBox="0 0 41 40" id="icon-cheked" xmlns="http://www.w3.org/2000/svg"><path fill-rule="evenodd" clip-rule="evenodd" d="M0 5a5 5 0 015-5h1v2H5a3 3 0 00-3 3v1H0V5zm0 30a5 5 0 005 5h1v-2H5a3 3 0 01-3-3v-1H0v1zM41 5a5 5 0 00-5-5h-1v2h1a3 3 0 013 3v1h2V5zm0 30a5 5 0 01-5 5h-1v-2h1a3 3 0 003-3v-1h2v1zM5 9a4 4 0 014-4h22a4 4 0 014 4v22a4 4 0 01-4 4H9a4 4 0 01-4-4V9zm4-2a2 2 0 00-2 2v22a2 2 0 002 2h22a2 2 0 002-2V9a2 2 0 00-2-2H9z"/><path fill-rule="evenodd" clip-rule="evenodd" d="M29.731 15.682l-7.871 8.434a3 3 0 01-4.386 0l-3.205-3.433 1.462-1.365 3.205 3.433a1 1 0 001.462 0l7.871-8.433 1.462 1.364z"/></symbol><symbol viewBox="0 0 17 24" id="icon-details" xmlns="http://www.w3.org/2000/svg"><path fill-rule="evenodd" clip-rule="evenodd" d="M2.07 13.76l1.751 7.261a.535.535 0 00.142.019h8.574a.535.535 0 00.142-.019l1.75-7.26-.02-.001H2.091a.75.75 0 00-.022 0zm10.571 7.417v-.002zM.622 12.26c.403-.333.934-.5 1.47-.5h12.316c.536 0 1.068.167 1.47.5.408.337.744.92.581 1.617l-.001.006-1.871 7.759c-.125.522-.487.877-.84 1.083-.36.21-.784.315-1.21.315H3.963a2.41 2.41 0 01-1.21-.315c-.353-.206-.714-.561-.84-1.082v-.001L.042 13.877c-.163-.696.173-1.28.581-1.617z"/><path fill-rule="evenodd" clip-rule="evenodd" d="M9.25 0v12.76h-2V0h2z"/><path fill-rule="evenodd" clip-rule="evenodd" d="M13.178 3.325c-1.15.036-2.281.293-2.958.943-.667.64-.928 1.7-.965 2.788-.015.443.008.852.041 1.177.347.033.792.058 1.276.043 1.15-.036 2.281-.293 2.958-.943.667-.64.929-1.701.966-2.788a8.897 8.897 0 00-.042-1.177 10.203 10.203 0 00-1.276-.043zm2.157-.847l.979-.207v.002l.001.005.003.012.008.042.026.143a10.971 10.971 0 01.143 2.138c-.043 1.243-.338 2.97-1.58 4.163-1.231 1.182-3.004 1.459-4.28 1.499a12.273 12.273 0 01-2.35-.16l-.043-.008-.012-.002h-.005l-.001-.001s-.002 0 .19-.982l-.977.208v-.003l-.002-.004-.002-.013-.009-.041a9.945 9.945 0 01-.097-.643 10.978 10.978 0 01-.071-1.638c.042-1.243.337-2.97 1.579-4.163 1.232-1.182 3.004-1.46 4.28-1.5a12.268 12.268 0 012.35.16l.043.008.013.003h.006l-.192.982zm-6.92 6.644l-.978.208.137.647.648.127.193-.982zm6.92-6.644l.193-.98.648.126.138.647-.979.207z"/><path fill-rule="evenodd" clip-rule="evenodd" d="M2.93 2.164c.948.03 1.837.242 2.355.74.508.487.723 1.315.753 2.208.01.3-.001.582-.021.821-.26.02-.571.034-.905.023-.948-.03-1.837-.242-2.355-.74-.507-.486-.723-1.315-.753-2.207-.01-.301.002-.583.021-.822.26-.02.571-.034.905-.023zm-1.793-.872L.16 1.084v.003l-.001.004-.002.011-.008.036-.022.123a9.314 9.314 0 00-.121 1.815C.041 4.126.29 5.62 1.372 6.66 2.445 7.69 3.976 7.922 5.05 7.956a10.392 10.392 0 001.992-.136l.037-.007.011-.002h.004l.002-.001-.191-.982.978.208v-.002l.001-.004.003-.012.007-.036.022-.123a9.314 9.314 0 00.121-1.815C8.001 3.995 7.753 2.5 6.67 1.46 5.597.43 4.066.198 2.992.165A10.391 10.391 0 001 .3L.963.307.952.31H.946l.191.982zm5.768 5.536l.978.208-.138.647-.648.127-.192-.982zM1.137 1.292L.945.31.297.438l-.138.646.978.208z"/></symbol><symbol viewBox="0 0 32 25" id="icon-form-1" xmlns="http://www.w3.org/2000/svg"><path fill-rule="evenodd" clip-rule="evenodd" d="M2.47 12.499a25.23 25.23 0 003.426 4.65c2.416 2.576 5.837 5.016 10.104 5.016 4.267 0 7.688-2.44 10.104-5.017a25.23 25.23 0 003.426-4.65 25.229 25.229 0 00-3.426-4.65C23.688 5.273 20.267 2.833 16 2.833c-4.267 0-7.688 2.44-10.104 5.017A25.23 25.23 0 002.47 12.5zm28.197 0l.894-.448v-.001l-.002-.003-.004-.008-.015-.028a15.792 15.792 0 00-.25-.46 27.235 27.235 0 00-3.728-5.069C24.98 3.724 21.067.831 16 .831c-5.066 0-8.979 2.893-11.563 5.65A27.233 27.233 0 00.71 11.55a16.077 16.077 0 00-.25.46l-.014.029-.004.008-.001.003c0 .001-.001.002.893.449L.44 12.05c-.14.281-.14.613 0 .895l.894-.447-.894.447v.002l.002.002.004.009.015.027a16.077 16.077 0 00.25.46c.172.309.427.743.762 1.262a27.233 27.233 0 002.965 3.808c2.584 2.756 6.497 5.65 11.563 5.65 5.066 0 8.979-2.894 11.563-5.65a27.235 27.235 0 003.728-5.069 15.792 15.792 0 00.25-.46l.014-.028.004-.009.001-.002v-.001s.001-.001-.893-.448zm0 0l.894.448c.14-.282.14-.615 0-.896l-.894.448z"/><path fill-rule="evenodd" clip-rule="evenodd" d="M16 9.499a3 3 0 100 6 3 3 0 000-6zm-5 3a5 5 0 1110 0 5 5 0 01-10 0z"/></symbol><symbol viewBox="0 0 30 29" id="icon-form-2" xmlns="http://www.w3.org/2000/svg"><path fill-rule="evenodd" clip-rule="evenodd" d="M15 2.166c-6.811 0-12.333 5.522-12.333 12.333 0 6.812 5.522 12.334 12.333 12.334 6.812 0 12.333-5.522 12.333-12.334 0-6.811-5.521-12.333-12.333-12.333zM.667 14.499C.667 6.583 7.084.166 15 .166s14.333 6.417 14.333 14.333S22.916 28.833 15 28.833.667 22.415.667 14.499z"/><path fill-rule="evenodd" clip-rule="evenodd" d="M15.4 8.87a3 3 0 00-3.337 1.96 1 1 0 11-1.886-.663 5 5 0 019.716 1.666c0 1.864-1.385 3.125-2.445 3.831a10.394 10.394 0 01-2.175 1.095l-.043.015-.013.005-.005.001h-.001s-.001.001-.31-.923l.309.924a1 1 0 01-.635-1.897h.002l.002-.001.024-.008.106-.04A8.388 8.388 0 0016.34 14c.94-.626 1.554-1.365 1.554-2.168v-.001A3 3 0 0015.4 8.87zM14 21.166a1 1 0 011-1h.013a1 1 0 110 2H15a1 1 0 01-1-1z"/></symbol><symbol viewBox="0 0 26 29" id="icon-form-4" xmlns="http://www.w3.org/2000/svg"><path fill-rule="evenodd" clip-rule="evenodd" d="M12.386.377a1 1 0 011.228 0l12 9.333a1 1 0 01.386.79v14.666a3.667 3.667 0 01-3.667 3.667H3.667A3.666 3.666 0 010 25.166V10.499a1 1 0 01.386-.789l12-9.333zM2 10.988v14.178a1.667 1.667 0 001.667 1.667h18.666A1.666 1.666 0 0024 25.166V10.988L13 2.433 2 10.988z"/><path fill-rule="evenodd" clip-rule="evenodd" d="M13.678 9.764a1 1 0 01.057 1.413l-4.616 5a1 1 0 01-1.469 0L6.266 14.68a1 1 0 011.468-1.357l.65.703 3.881-4.204a1 1 0 011.413-.057zm0 7a1 1 0 01.057 1.413l-4.616 5a1 1 0 01-1.469 0L6.266 21.68a1 1 0 011.468-1.357l.65.703 3.881-4.204a1 1 0 011.413-.057z"/></symbol><symbol viewBox="0 0 30 29" id="icon-form-5" xmlns="http://www.w3.org/2000/svg"><path fill-rule="evenodd" clip-rule="evenodd" d="M20.02 3.226a12.334 12.334 0 107.313 11.273v-1.226a1 1 0 112 0v1.226a14.335 14.335 0 11-8.5-13.1 1 1 0 01-.813 1.827z"/><path fill-rule="evenodd" clip-rule="evenodd" d="M29.04 3.125a1 1 0 010 1.414L15.709 17.886a1 1 0 01-1.415 0l-4-4a1 1 0 011.414-1.414L15 15.764 27.626 3.125a1 1 0 011.414 0z"/></symbol><symbol viewBox="0 0 14 14" id="icon-g" xmlns="http://www.w3.org/2000/svg"><path fill-rule="evenodd" clip-rule="evenodd" d="M11.588 2.289v-.001l.001-.003A6.415 6.415 0 009.47.998a6.783 6.783 0 00-3.65-.25l-.036.007A6.58 6.58 0 001.31 4.163a6.312 6.312 0 00-.573 1.624 6.37 6.37 0 00.57 4.176 6.54 6.54 0 001.786 2.155 6.604 6.604 0 002.391 1.184c1.097.288 2.264.281 3.368.035a6.01 6.01 0 002.748-1.423 5.857 5.857 0 001.617-2.635 7.495 7.495 0 00.166-3.429h-6.19v.003h-.004v2.52h3.586a3.037 3.037 0 01-1.314 1.992l-.004-.003a3.812 3.812 0 01-1.45.563 4.36 4.36 0 01-1.57-.004A3.96 3.96 0 014.97 10.3a4.02 4.02 0 01-1.504-1.975l-.002-.005.007-.005A3.827 3.827 0 013.473 5.8h-.002a4.02 4.02 0 01.951-1.512 3.923 3.923 0 011.967-1.072 3.998 3.998 0 011.931.076 3.55 3.55 0 011.418.819l1.21-1.187c.076-.076.153-.15.23-.225.14-.135.278-.27.41-.41z"/></symbol><symbol viewBox="0 0 32 29" id="icon-hart" xmlns="http://www.w3.org/2000/svg"><path d="M29.416 3.113A8.784 8.784 0 0023.154.52a8.806 8.806 0 00-6.268 2.599l-.875.875-.89-.889A8.828 8.828 0 008.848.501a8.8 8.8 0 00-6.255 2.591A8.771 8.771 0 000 9.361c0 2.367.93 4.586 2.606 6.261l12.74 12.74a.922.922 0 00.644.272c.23 0 .468-.088.645-.265l12.767-12.72A8.806 8.806 0 0032 9.382a8.765 8.765 0 00-2.584-6.268zm-1.303 11.24L15.99 26.43 3.894 14.334A6.984 6.984 0 011.832 9.36a6.95 6.95 0 012.056-4.966 6.974 6.974 0 014.959-2.056 7 7 0 014.98 2.063l1.532 1.533c.36.36.937.36 1.296 0l1.52-1.52a6.996 6.996 0 014.972-2.062 7 7 0 014.966 2.056A6.977 6.977 0 0130.17 9.38a6.95 6.95 0 01-2.056 4.973z"/></symbol><symbol viewBox="0 0 29.87 26.31" id="icon-heart" xmlns="http://www.w3.org/2000/svg"><path d="M14.94 26.31c-.27 0-.52-.11-.71-.29L2.44 14.23C.87 12.65 0 10.56 0 8.34s.87-4.33 2.44-5.9C4.02.87 6.11 0 8.33 0s4.32.87 5.89 2.44l.71.71.71-.71c.78-.78 1.69-1.39 2.7-1.81 2.03-.84 4.35-.84 6.38 0 1.02.42 1.93 1.03 2.7 1.81.78.78 1.39 1.69 1.81 2.7.42 1.02.63 2.09.63 3.19a8.323 8.323 0 01-2.44 5.9L15.63 26.02a.99.99 0 01-.71.29zM8.33 2c-1.69 0-3.28.66-4.48 1.86-1.18 1.18-1.86 2.81-1.86 4.48s.66 3.28 1.86 4.48L14.93 23.9l11.08-11.08c.59-.59 1.05-1.28 1.37-2.06.32-.77.48-1.59.48-2.42s-.16-1.65-.48-2.42c-.32-.77-.78-1.46-1.37-2.05a6.366 6.366 0 00-8.97 0l-1.41 1.41a.996.996 0 01-1.41 0l-1.41-1.41a6.294 6.294 0 00-4.48-1.86z"/></symbol><symbol viewBox="0 0 154 25" id="icon-idp" xmlns="http://www.w3.org/2000/svg"><path d="M29.096 24.633H10.313l9.13-11.531-9.026-11.948h18.73l9.08 11.948-9.131 11.53zm-10.957-3.81h9.079l6.104-7.721-6.105-8.14h-9.182l6.209 8.14-6.105 7.722zM3.74 4.964L.87 1.104h4.747l2.922 3.86h-4.8z"/><path d="M14.748 13.103l-9.13 11.53H.764l9.13-11.582L6.66 8.773h4.748l3.339 4.33zm36.939-2.453h-2.035V1.154h2.035v9.496zm1.096-9.496h2.191l2.557 7.096 2.556-7.096h2.191l-3.704 9.496h-2.087l-3.704-9.496zm12.574 0h2.191l3.86 9.496h-2.086l-.678-1.774h-4.33l-.731 1.774h-2.087l3.86-9.496zm2.66 6l-1.304-3.391c-.052-.209-.156-.365-.208-.73-.053.365-.157.573-.21.73l-1.303 3.391h3.026zm4.487-6h1.93l4.436 6.209c-.053-.417-.052-.887-.052-1.304V1.154h2.034v9.496h-1.93l-4.435-6.21c.052.418.052.887.052 1.305v4.904h-2.035V1.154zm21.914 4.748c0 2.765-1.618 4.748-4.957 4.748h-3.548V1.154h3.548c3.34 0 4.957 1.983 4.957 4.748zm-5.009-2.974h-1.513v5.896h1.513c1.878 0 2.922-.992 2.922-2.974 0-1.983-1.044-2.922-2.922-2.922zm13.2 0h-4.643v2.035h4.226v1.774h-4.226v2.139h4.747v1.774h-6.782V1.154h6.678v1.774zm5.635-1.774c1.826 0 3.756.678 3.756 3.078 0 1.618-.939 2.453-2.087 2.818l2.818 3.6h-2.348l-2.557-3.34h-1.513v3.34h-2.035V1.154h3.966zm.052 4.435c.835 0 1.617-.365 1.617-1.357 0-.99-.73-1.356-1.617-1.356h-1.983v2.66h1.983v.053zm13.043-2.035c0 1.096-.574 1.774-1.461 2.087.94.261 1.827.94 1.827 2.348 0 2.14-2.087 2.66-3.757 2.66h-4.07V1.155h4.174c2.035 0 3.287.73 3.287 2.4zm-3.287 2.974h-2.139V8.98h2.035c.887 0 1.722-.208 1.722-1.2 0-1.043-.783-1.252-1.618-1.252zm-.156-3.704h-1.931v2.191H118c.783 0 1.305-.365 1.305-1.096 0-.782-.522-1.095-1.409-1.095zm7.356 7.826h-2.034V1.154h2.034v9.496zm4.07-1.826h4.643v1.826h-6.678V1.154h2.035v7.67zM139.339.945c3.34 0 5.061 2.348 5.061 4.957 0 2.556-1.669 4.956-5.061 4.956-3.391 0-5.06-2.347-5.06-4.956 0-2.609 1.721-4.957 5.06-4.957zm0 1.879c-1.982 0-2.974 1.408-2.974 3.026 0 1.67.992 3.078 2.974 3.078 1.983 0 2.974-1.409 2.974-3.078 0-1.618-.991-3.026-2.974-3.026zm5.166-1.67h2.191l2.556 7.096 2.557-7.096H154l-3.704 9.496h-2.087l-3.704-9.496zm-87.183 17.27c0 2.452-1.826 3.182-4.122 3.182h-1.565v3.13H49.6v-9.495h3.6c2.348 0 4.122.73 4.122 3.183zm-4.017-1.409h-1.618v2.817h1.618c1.043 0 1.93-.26 1.93-1.408s-.887-1.409-1.93-1.409zm5.373-1.774h3.914c1.826 0 3.756.678 3.756 3.078 0 1.618-.94 2.453-2.087 2.818l2.817 3.6h-2.347l-2.557-3.34h-1.513v3.34h-1.983V15.24zm4.018 4.435c.835 0 1.617-.365 1.617-1.357 0-.99-.73-1.356-1.617-1.356h-1.983v2.66h1.983v.053zm9.965-4.644c3.34 0 5.06 2.348 5.06 4.957 0 2.556-1.669 4.956-5.06 4.956-3.391 0-5.06-2.348-5.06-4.956 0-2.609 1.669-4.957 5.06-4.957zm0 1.878c-1.983 0-2.974 1.41-2.974 3.027 0 1.67.992 3.078 2.974 3.078 1.983 0 2.974-1.409 2.974-3.078-.052-1.618-1.044-3.027-2.974-3.027zm15.079 3.079c0 2.765-1.618 4.748-4.957 4.748h-3.548V15.24h3.548c3.339 0 4.956 1.983 4.956 4.748zm-5.01-2.974h-1.512v5.896h1.513c1.878 0 2.921-.992 2.921-2.974 0-1.983-.99-2.922-2.921-2.922zm14.766 4.122c0 2.817-2.087 3.756-4.174 3.756s-4.174-.939-4.174-3.756V15.24h2.035v5.844c0 1.513.887 2.034 2.139 2.034 1.252 0 2.14-.521 2.14-2.034V15.24h2.034v5.896zm6.522-6.105c.939 0 1.878.209 2.713.626v1.93c-.626-.469-1.513-.73-2.4-.73-1.67 0-3.339.94-3.339 3.235 0 2.087 1.721 3.026 3.339 3.026.991 0 1.878-.26 2.452-.782v1.982c-.835.418-1.774.626-2.765.626-2.557 0-5.113-1.513-5.113-4.852 0-3.495 2.556-5.06 5.113-5.06zm11.321 2.035h-2.921v7.67h-2.035v-7.67h-2.922v-1.826h7.878v1.826zm3.235 7.67h-2.035V15.24h2.035v9.496zm6.522-9.705c3.339 0 5.061 2.348 5.061 4.957 0 2.556-1.67 4.956-5.061 4.956s-5.061-2.348-5.061-4.956c0-2.609 1.722-4.957 5.061-4.957zm0 1.878c-1.983 0-2.974 1.41-2.974 3.027 0 1.67.991 3.078 2.974 3.078 1.982 0 2.974-1.409 2.974-3.078 0-1.618-.992-3.027-2.974-3.027zm6.574-1.669h1.93l4.435 6.209c-.052-.418-.052-.887-.052-1.305v-4.904h2.035v9.496h-1.931l-4.435-6.209c.053.418.053.887.053 1.305v4.904h-2.035V15.24z"/></symbol><symbol viewBox="0 0 44 44" id="icon-light" xmlns="http://www.w3.org/2000/svg"><path fill-rule="evenodd" clip-rule="evenodd" d="M22 13a9 9 0 100 18 9 9 0 000-18zm-11 9c0-6.075 4.925-11 11-11s11 4.925 11 11-4.925 11-11 11-11-4.925-11-11zM23 0v6h-2V0h2zm0 38v6h-2v-6h2zM7 5.586L11.414 10 10 11.414 5.586 7 7 5.586zm27 27L38.414 37 37 38.414 32.586 34 34 32.586zM0 21h6v2H0v-2zm38 0h6v2h-6v-2zM11.414 34L7 38.414 5.586 37 10 32.586 11.414 34zm27-27L34 11.414 32.586 10 37 5.586 38.414 7z"/></symbol><symbol viewBox="0 0 21 24" id="icon-location" xmlns="http://www.w3.org/2000/svg"><path fill-rule="evenodd" clip-rule="evenodd" d="M10.5 2a8 8 0 00-8 8c0 3.099 2.016 6.105 4.226 8.438a29.432 29.432 0 003.774 3.335 29.427 29.427 0 003.774-3.335c2.21-2.333 4.226-5.34 4.226-8.437a8 8 0 00-8-8zm0 21l-.555.832-.003-.002-.007-.004-.023-.015-.082-.057c-.071-.05-.174-.121-.302-.214a31.413 31.413 0 01-4.254-3.726C2.984 17.396.5 13.903.5 10a10 10 0 0120 0c0 3.902-2.484 7.396-4.774 9.813a31.418 31.418 0 01-4.254 3.726 18.256 18.256 0 01-.384.27l-.023.016-.007.005h-.002s-.001.002-.556-.83zm0 0l.555.833a1 1 0 01-1.11 0L10.5 23z"/><path fill-rule="evenodd" clip-rule="evenodd" d="M10.5 7a3 3 0 00-3 3h-2a5 5 0 0110 0h-2a3 3 0 00-3-3z"/></symbol><symbol viewBox="0 0 300 26" id="icon-logo" xmlns="http://www.w3.org/2000/svg"><path fill-rule="evenodd" clip-rule="evenodd" d="M180.243 2.973l-19.589 9.934 19.589 9.934-1.508 2.973-21.766-11.038-21.766 11.038-1.508-2.973 19.589-9.934-19.589-9.934L135.203 0l21.766 11.038L178.735 0l1.508 2.973zM276.842.028l10.341 11.263L297.453.028l2.464 2.246-11.063 12.132v10.692h-3.333V14.409L274.387 2.282l2.455-2.254zM0 .645h22.804v3.333H3.334v7.191H18.54v3.333H3.333V25.17H0V.645zm48.137 0v21.19h19.328v3.334H44.804V.645h3.333zm41.328 0h22.804v3.333h-19.47v7.191h15.206v3.333H92.799v7.334h19.47v3.333H89.465V.645zm115.538 0v24.524h-3.334V.645h3.334zm22 0h26.072v3.333h-11.37v21.191h-3.333V3.98h-11.369V.644z"/></symbol><symbol viewBox="0 0 316 65" id="icon-logo-enka" xmlns="http://www.w3.org/2000/svg"><path d="M130.716.945v32l-26.652-32H79.952v64h24.113v-32l26.651 32h24.113v-64h-24.113zM0 .945v64h71.069V48.946H24.113v-8.96h38.072v-14.08H24.113v-8.96h46.956v-16H0zM271.06 23.38l8.069 16.607h-15.973l7.904-16.607zM256.354.945L232.143 51.82l-20.396-26.115 26.84-24.76h-28.554l-22.209 20.488V.945h-24.113v64h24.113v-17.17l7.277-6.713 19.375 23.883h36.803l4.263-8.96h31.359l4.353 8.96H316l-31.092-64h-28.554z"/></symbol><symbol viewBox="0 0 14 17" id="icon-m" xmlns="http://www.w3.org/2000/svg"><path d="M13.323 5.794c-.07.045-1.76.982-1.76 3.06.08 2.37 2.132 3.2 2.167 3.2-.035.045-.31 1.133-1.123 2.273-.645.982-1.362 1.973-2.45 1.973-1.034 0-1.405-.655-2.6-.655-1.281 0-1.644.655-2.626.655-1.088 0-1.857-1.044-2.538-2.017C1.51 13.01.758 11.012.731 9.093c-.018-1.017.177-2.017.672-2.866.699-1.185 1.945-1.99 3.307-2.016 1.044-.035 1.972.716 2.609.716.61 0 1.75-.716 3.042-.716.557 0 2.042.168 2.962 1.583zM7.231 4.008c-.186-.929.327-1.857.804-2.45C8.645.843 9.61.357 10.44.357a3.463 3.463 0 01-.884 2.503c-.54.716-1.468 1.255-2.325 1.149z"/></symbol><symbol viewBox="0 0 40 40" id="icon-marker" xmlns="http://www.w3.org/2000/svg"><path fill-rule="evenodd" clip-rule="evenodd" d="M20.001 2.429C10.297 2.429 2.43 10.296 2.43 20S10.297 37.571 20 37.571c9.705 0 17.571-7.866 17.571-17.571 0-9.704-7.866-17.571-17.57-17.571zM.43 20C.43 9.191 9.192.429 20 .429 30.811.429 39.572 9.19 39.572 20c0 10.809-8.762 19.571-19.57 19.571C9.191 39.571.43 30.81.43 20z"/><path fill-rule="evenodd" clip-rule="evenodd" d="M20 12c-1.575 0-3.095.658-4.225 1.846C14.644 15.036 14 16.66 14 18.364c0 2.48 1.536 4.901 3.243 6.796A23.141 23.141 0 0020 27.745a23.141 23.141 0 002.757-2.585C24.464 23.265 26 20.844 26 18.364c0-1.704-.644-3.328-1.775-4.518C23.095 12.658 21.575 12 20 12zm0 17c-.574.819-.574.819-.575.818l-.002-.001-.006-.004-.018-.014a9.569 9.569 0 01-.305-.225 25.147 25.147 0 01-3.337-3.075C13.964 24.508 12 21.61 12 18.364c0-2.203.831-4.324 2.325-5.896C15.822 10.894 17.863 10 20 10c2.139 0 4.179.894 5.674 2.468C27.17 14.04 28 16.16 28 18.364c0 3.246-1.964 6.144-3.757 8.135a25.147 25.147 0 01-3.337 3.075 15.301 15.301 0 01-.305.225l-.018.014-.006.004h-.002c0 .001 0 .002-.575-.817zm0 0l.574.819-.574.402-.575-.403L20 29z"/></symbol><symbol viewBox="0 0 26 26" id="icon-message" xmlns="http://www.w3.org/2000/svg"><path d="M1 26c-.26 0-.52-.1-.71-.29a.99.99 0 01-.24-1.02l2.4-7.21a12.14 12.14 0 01-1.12-5.14c0-2.29.64-4.53 1.84-6.48C4.38 3.91 6.1 2.34 8.15 1.31 9.84.46 11.74 0 13.63 0h.7c3.08.17 5.93 1.44 8.08 3.59 2.15 2.14 3.42 4.99 3.59 8.02v.72c0 1.91-.45 3.81-1.31 5.52a12.224 12.224 0 01-4.54 4.97 12.27 12.27 0 01-6.48 1.84h-.03c-1.75 0-3.51-.39-5.1-1.12l-7.21 2.4a.86.86 0 01-.32.05zM13.64 2c-1.59 0-3.17.38-4.59 1.09A10.35 10.35 0 004.88 6.9a10.302 10.302 0 00-1.54 5.43c0 1.6.37 3.19 1.09 4.61.12.24.14.51.06.77l-1.9 5.7 5.7-1.9c.25-.09.53-.06.77.06 1.42.72 3.04 1.1 4.61 1.09 1.92 0 3.8-.53 5.43-1.54a10.35 10.35 0 003.81-4.17c.72-1.43 1.1-3.02 1.09-4.62v-.67c-.14-2.48-1.21-4.87-3-6.66-1.8-1.8-4.18-2.86-6.72-3h-.64z"/></symbol><symbol viewBox="0 0 19 17" id="icon-next" xmlns="http://www.w3.org/2000/svg"><path fill-rule="evenodd" clip-rule="evenodd" d="M10.552.032l7.813 8.413-7.813 8.414-1.465-1.361 5.62-6.053H0v-2h14.707l-5.62-6.052 1.465-1.36z"/></symbol><symbol viewBox="0 0 24 24" id="icon-nic" xmlns="http://www.w3.org/2000/svg"><path d="M11.443 24c-3.454 0-6.23-1.082-8.328-3.246C1.038 18.59 0 15.88 0 12.623c0-2.426.59-4.612 1.77-6.557C2.973 4.12 4.536 2.623 6.46 1.574A12.991 12.991 0 0112.721 0c3.257 0 5.935.95 8.033 2.852 2.12 1.902 3.18 4.405 3.18 7.509 0 2.666-.568 4.688-1.704 6.065-1.137 1.377-2.547 2.066-4.23 2.066-1.64 0-2.798-.612-3.475-1.836-.962 1.18-2.34 1.77-4.132 1.77-1.486 0-2.71-.524-3.672-1.573-.94-1.05-1.41-2.405-1.41-4.066 0-2.011.634-3.705 1.902-5.082 1.29-1.399 2.853-2.098 4.689-2.098.896 0 1.65.207 2.262.623.634.415 1.093.928 1.377 1.54l.328-1.836h2.852l-1.573 7.541c-.175.722-.186 1.334-.033 1.837.175.502.59.754 1.246.754 2.054 0 3.082-1.924 3.082-5.77 0-2.449-.831-4.383-2.492-5.804-1.661-1.443-3.749-2.164-6.263-2.164-2.797 0-5.19.94-7.18 2.82-1.989 1.88-2.983 4.371-2.983 7.475 0 2.71.797 4.907 2.393 6.59 1.618 1.661 3.792 2.492 6.525 2.492 2.273 0 4.251-.415 5.934-1.246v2.525A17.548 17.548 0 0111.443 24zm-.525-8.164c.962 0 1.782-.306 2.459-.918.7-.634 1.137-1.454 1.311-2.459.241-1.202.11-2.208-.393-3.016-.503-.81-1.246-1.213-2.23-1.213-.961 0-1.792.316-2.491.95-.678.612-1.104 1.421-1.279 2.427-.24 1.202-.11 2.207.394 3.016.502.809 1.245 1.213 2.229 1.213z"/></symbol><symbol viewBox="0 0 17 17" id="icon-ph" xmlns="http://www.w3.org/2000/svg"><path fill-rule="evenodd" clip-rule="evenodd" d="M5 4.662a1.066 1.066 0 00-1.557.054l-.176.202c-.443.509-.43 1.27.03 1.762l6.581 7.05a2.155 2.155 0 003.154-.002l.448-.482a1.402 1.402 0 00-1.026-2.357h-1.812v-2h1.812a3.402 3.402 0 012.491 5.719l-.448.482a4.155 4.155 0 01-6.081.006l-6.58-7.05a3.316 3.316 0 01-.078-4.44l.176-.203a3.066 3.066 0 015.313 1.381l.396 1.878-1.958.412-.395-1.878A1.066 1.066 0 005 4.662z"/><path fill-rule="evenodd" clip-rule="evenodd" d="M16.056 1.89l-3.5 3.5h2.086v2h-5.5v-5.5h2v2.085l3.5-3.5 1.414 1.414z"/></symbol><symbol viewBox="0 0 26 26" id="icon-phone" xmlns="http://www.w3.org/2000/svg"><path d="M25 18.969v3.613a2.405 2.405 0 01-1.641 2.291 2.418 2.418 0 01-.99.117 23.912 23.912 0 01-10.414-3.697 23.508 23.508 0 01-7.24-7.226A23.803 23.803 0 011.01 3.626a2.404 2.404 0 011.428-2.42A2.4 2.4 0 013.411 1h3.62a2.416 2.416 0 012.414 2.072 15.44 15.44 0 00.844 3.384 2.404 2.404 0 01-.543 2.54l-1.532 1.53a19.288 19.288 0 007.24 7.226l1.533-1.53a2.414 2.414 0 012.546-.541c1.095.408 2.232.69 3.39.843A2.415 2.415 0 0125 18.969z"/></symbol><symbol viewBox="0 0 18 22" id="icon-play" xmlns="http://www.w3.org/2000/svg"><path d="M18 11L0 21.392V.608L18 11z"/></symbol><symbol viewBox="0 0 19 17" id="icon-prev" xmlns="http://www.w3.org/2000/svg"><path fill-rule="evenodd" clip-rule="evenodd" d="M8.448.032L.635 8.445l7.813 8.414 1.465-1.361-5.62-6.053H19v-2H4.293l5.62-6.052L8.448.033z"/></symbol><symbol viewBox="0 0 90 72" id="icon-quat" xmlns="http://www.w3.org/2000/svg"><path d="M40.139 30.316L14.459 72H0l16.704-36.126c-2.992-1.516-5.485-3.79-7.48-6.821-1.828-3.2-2.742-6.569-2.742-10.106 0-5.22 1.745-9.684 5.235-13.39C15.374 1.854 19.861 0 25.18 0c5.152 0 9.474 1.853 12.964 5.558 3.657 3.705 5.485 8.168 5.485 13.39 0 3.705-1.164 7.494-3.49 11.368zm46.37 0L60.832 72h-14.46l16.704-36.126c-2.992-1.516-5.485-3.79-7.48-6.821-1.828-3.2-2.742-6.569-2.742-10.106 0-5.22 1.745-9.684 5.236-13.39C61.745 1.854 66.233 0 71.55 0c5.153 0 9.474 1.853 12.964 5.558C88.172 9.263 90 13.726 90 18.948c0 3.705-1.163 7.494-3.49 11.368z" fill-opacity=".1"/></symbol><symbol viewBox="0 0 21 17" id="icon-sc11-icon-1" xmlns="http://www.w3.org/2000/svg"><path fill-rule="evenodd" clip-rule="evenodd" d="M18.646.571L18.03 1l.616-.428.003.004.005.008.018.026.061.093a12.883 12.883 0 01.83 1.523c.446.97.92 2.324.92 3.734 0 1.41-.474 2.764-.92 3.734a12.878 12.878 0 01-.83 1.523l-.06.092-.018.026-.006.008-.002.003-.616-.427.616.428-.265.381L.437 9.117V2.8L18.382.19l.264.381zm-.99 9.535c.149-.25.346-.61.544-1.04.405-.881.783-2.007.783-3.107s-.378-2.226-.783-3.108c-.198-.43-.395-.789-.544-1.04L1.936 4.098V7.82l15.72 2.286z"/><path fill-rule="evenodd" clip-rule="evenodd" d="M.349 15.627l4-7 1.302.744-4 7-1.302-.744z"/><path fill-rule="evenodd" clip-rule="evenodd" d="M9.349 16.372l-4-7 1.302-.745 4 7-1.302.745z"/></symbol><symbol viewBox="0 0 15 23" id="icon-sc11-icon-2" xmlns="http://www.w3.org/2000/svg"><path fill-rule="evenodd" clip-rule="evenodd" d="M5.24 1.637a3.5 3.5 0 015.974 2.475v7.334a3.5 3.5 0 01-7 0V4.112A3.5 3.5 0 015.24 1.637zm2.474.475a2 2 0 00-2 2v7.334a2 2 0 104 0V4.112a2 2 0 00-2-2z"/><path fill-rule="evenodd" clip-rule="evenodd" d="M1.298 8.862a.75.75 0 01.75.75v1.834a5.667 5.667 0 1011.333 0V9.612a.75.75 0 011.5 0v1.834a7.166 7.166 0 11-14.333 0V9.612a.75.75 0 01.75-.75z"/><path fill-rule="evenodd" clip-rule="evenodd" d="M7.714 17.112a.75.75 0 01.75.75v3.667a.75.75 0 01-1.5 0v-3.667a.75.75 0 01.75-.75z"/><path fill-rule="evenodd" clip-rule="evenodd" d="M3.298 21.529a.75.75 0 01.75-.75h7.333a.75.75 0 110 1.5H4.048a.75.75 0 01-.75-.75z"/></symbol><symbol viewBox="0 0 22 25" id="icon-sc11-icon-3" xmlns="http://www.w3.org/2000/svg"><path fill-rule="evenodd" clip-rule="evenodd" d="M10.933 1.749a1.595 1.595 0 100 3.19 1.595 1.595 0 000-3.19zM7.838 3.344a3.095 3.095 0 116.19 0 3.095 3.095 0 01-6.19 0z"/><path fill-rule="evenodd" clip-rule="evenodd" d="M6.691 7.997c2.574-1.827 5.804-1.82 8.37 0l.018.013 2.699 2.171c.265.217.559.402.869.549l1.585.754a1.82 1.82 0 01.888 2.38 1.82 1.82 0 01-2.378.943l-1.383-.587h-.002a5.883 5.883 0 01-1.5-.922l-.002-.001-.862-.728v3.573h-1.5v-4.69c0-.847.98-1.273 1.605-.757l.006.005 1.717 1.449c.343.288.72.521 1.117.688l.003.001 1.386.588M7.577 9.208L4.92 11.345a6.11 6.11 0 01-1.163.736l-.009.004-1.584.754a.326.326 0 00-.16.421.322.322 0 00.417.167l.003-.001 1.384-.587a4.562 4.562 0 001.122-.69h.001l1.714-1.446c.66-.566 1.614-.054 1.614.75v4.689h-1.5v-3.573l-.862.728-.002.001a6.084 6.084 0 01-1.494.92l-.005.001-1.384.587h-.001a1.822 1.822 0 01-2.38-.943l-.001-.004c-.39-.9-.001-1.951.89-2.375l1.58-.752c.321-.158.615-.339.874-.55l.004-.004L6.673 8.01l.018-.013m.886 1.21c2.043-1.439 4.56-1.434 6.597.001l2.657 2.137c.36.293.756.542 1.173.74"/><path fill-rule="evenodd" clip-rule="evenodd" d="M5.19 15.934a.763.763 0 00-.68.416l-.002.002a.765.765 0 00.33 1.027l3.129 1.61-.686 1.334-3.13-1.61h-.002a2.265 2.265 0 011.04-4.28c.35 0 .699.078 1.034.25l5.009 2.575-.686 1.334-5.01-2.575a.735.735 0 00-.346-.083zm10.44 5.276l-1.813-.933.686-1.334 1.816.934a2.265 2.265 0 01.974 3.048 2.261 2.261 0 01-3.049.98l-3.686-1.896.687-1.334 3.686 1.897.002.001c.37.191.83.047 1.026-.334l.001-.002a.765.765 0 00-.33-1.028z"/><path fill-rule="evenodd" clip-rule="evenodd" d="M5.84 22.313a.764.764 0 001.032.317l10.03-5.322a.764.764 0 10-.717-1.35L6.156 21.28a.764.764 0 00-.317 1.034zm1.735 1.642a2.264 2.264 0 11-2.122-4l10.03-5.322a2.264 2.264 0 012.122 4l-10.03 5.322z"/></symbol><symbol viewBox="0 0 22 17" id="icon-sc11-icon-4" xmlns="http://www.w3.org/2000/svg"><path fill-rule="evenodd" clip-rule="evenodd" d="M19.975 9.001h-4.398v-1.5h5.94v.75a8.099 8.099 0 01-2.298 5.677l-.001.001c-1.427 1.453-3.389 2.357-5.57 2.357H9.664v-.995h.75v-.505h3.236c1.753 0 3.336-.724 4.498-1.907A6.579 6.579 0 0019.975 9z"/><path fill-rule="evenodd" clip-rule="evenodd" d="M.193 7.501h5.704v1.5H1.734a6.579 6.579 0 001.829 3.878 6.264 6.264 0 004.497 1.907h2.353v.505h.75v.995H8.06a7.764 7.764 0 01-5.57-2.358A8.099 8.099 0 01.193 8.25V7.5z"/><path fill-rule="evenodd" clip-rule="evenodd" d="M11.168.386l-.431.613-.43-.614.43-.302.431.303zm4.677 8.284h.055v-.75c0-2.188-1.252-4.093-2.394-5.39A15.49 15.49 0 0011.382.545 9.16 9.16 0 0011.186.4l-.012-.01-.004-.002h-.001c0-.001-.001-.001-.432.612l-.43-.614-.003.002L10.3.39l-.012.01a7.878 7.878 0 00-.196.145A15.494 15.494 0 007.965 2.53C6.82 3.826 5.568 5.73 5.568 7.92c0 2.187 1.251 4.092 2.393 5.389a15.499 15.499 0 002.124 1.987 9.15 9.15 0 00.196.145l.012.009.004.003h.002l.431-.613-.43.614.43.303.431-.303-.43-.614.43.614.003-.002.004-.002.012-.009a7.086 7.086 0 00.196-.145 15.485 15.485 0 002.124-1.987c1.01-1.146 2.104-2.768 2.345-4.64zm-1.452-.984c-.085-1.548-.999-3.013-2.012-4.164a13.984 13.984 0 00-1.644-1.577A13.992 13.992 0 009.09 3.522C8.023 4.733 7.068 6.288 7.068 7.92c0 1.633.954 3.189 2.019 4.397a13.99 13.99 0 001.643 1.577 13.995 13.995 0 001.644-1.577c1.065-1.208 2.02-2.764 2.02-4.397v-.234z"/></symbol><symbol viewBox="0 0 24 15" id="icon-sc11-icon-5" xmlns="http://www.w3.org/2000/svg"><path fill-rule="evenodd" clip-rule="evenodd" d="M7.987 1.749a2.73 2.73 0 00-1.94.804 2.739 2.739 0 00-.804 1.94h-1.5c0-1.17.478-2.234 1.244-3a4.228 4.228 0 013-1.244h7.546a4.245 4.245 0 014.238 4.244h-1.5a2.745 2.745 0 00-2.738-2.744H7.987z"/><path fill-rule="evenodd" clip-rule="evenodd" d="M2.747 5.242a.741.741 0 00-.74.74V9.99c0 .408.332.74.74.74h18.02a.74.74 0 00.74-.74V5.982a.741.741 0 00-.74-.74h-1.746v-1.5h1.747a2.241 2.241 0 012.24 2.24V9.99a2.241 2.241 0 01-2.24 2.24H2.747a2.241 2.241 0 01-2.24-2.24V5.982a2.241 2.241 0 012.24-2.24h1.747v1.5H2.747z"/><path fill-rule="evenodd" clip-rule="evenodd" d="M3.743 8.127V4.493h1.5v3.282h13.028V4.493h1.5v3.634c0 .635-.514 1.148-1.149 1.148H4.892a1.148 1.148 0 01-1.149-1.148zm-1.018 5.22l2.397-2.397 1.06 1.06-2.396 2.397-1.061-1.06zm16.519 1.098l-2.396-2.397 1.06-1.06 2.397 2.396-1.06 1.06z"/><path fill-rule="evenodd" clip-rule="evenodd" d="M11.007 8.526V1h1.5v7.527h-1.5z"/></symbol><symbol viewBox="0 0 19 24" id="icon-sc11-icon-7" xmlns="http://www.w3.org/2000/svg"><path fill-rule="evenodd" clip-rule="evenodd" d="M5.275.42l.929 1.61a1.858 1.858 0 01-.68 2.537.358.358 0 00-.131.489l.929 1.609-1.3.75-.928-1.609a1.858 1.858 0 01.68-2.538.358.358 0 00.13-.488l-.928-1.61L5.275.42zM.035 8.867h15.5v.75c0 .103 0 .206-.002.31.743.12 1.45.424 1.998.92.755.684 1.155 1.69.952 2.895-.4 2.38-2.746 3.625-4.697 3.625h-.308c-1.222 1.765-3.073 3-5.692 3-2.948 0-4.923-1.564-6.122-3.686C.485 14.594.036 11.953.036 9.616v-.75zm14.303 6.957c1.28-.2 2.455-1.08 2.666-2.331.118-.701-.105-1.194-.48-1.534-.271-.245-.646-.43-1.08-.523-.15 1.496-.497 3.025-1.106 4.388zM1.552 10.366c.088 1.961.524 3.994 1.418 5.576.988 1.748 2.513 2.924 4.816 2.924s3.827-1.176 4.816-2.924c.893-1.582 1.33-3.615 1.417-5.576H1.552zM10.275.421l-1.299.75.929 1.609c.099.17.04.39-.131.488a1.858 1.858 0 00-.68 2.538l.929 1.609 1.299-.75-.929-1.609a.358.358 0 01.13-.489 1.858 1.858 0 00.68-2.537L10.276.42zm-6.24 21.445h7.5v1.5h-7.5v-1.5z"/></symbol><symbol viewBox="0 0 39 26" id="icon-sc12-icon-1" xmlns="http://www.w3.org/2000/svg"><path fill-rule="evenodd" clip-rule="evenodd" d="M23 17.18a2.763 2.763 0 012.76-2.76h9.59v2h-9.59a.763.763 0 00-.76.76v8.36h-2v-8.36zM16.07 2a.07.07 0 00-.07.07v4.84c0 .039.031.07.07.07h9.34a.07.07 0 00.07-.07V2.07a.07.07 0 00-.07-.07h-9.34zM14 2.07A2.07 2.07 0 0116.07 0h9.34a2.07 2.07 0 012.07 2.07v4.84a2.07 2.07 0 01-2.07 2.07h-9.34A2.07 2.07 0 0114 6.91V2.07z"/><path fill-rule="evenodd" clip-rule="evenodd" d="M20 11V7h2v4h-2z"/><path fill-rule="evenodd" clip-rule="evenodd" d="M0 12v-2h39v2H0z"/><path fill-rule="evenodd" clip-rule="evenodd" d="M5 10.63v14.91H3V10.63h2zm31.35 0v14.91h-2V10.63h2z"/></symbol><symbol viewBox="0 0 30 45" id="icon-sc12-icon-2" xmlns="http://www.w3.org/2000/svg"><path fill-rule="evenodd" clip-rule="evenodd" d="M10.766 2.676c-.669 0-1.244.51-1.321 1.206v.002l-1.902 16.8-1.988-.225L7.457 3.66C7.645 1.976 9.054.676 10.767.676h9.558c1.715 0 3.146 1.322 3.31 3.032l.001.002 1.67 16.796-1.99.198-1.67-16.8v-.003a1.344 1.344 0 00-1.32-1.225h-9.56z"/><path fill-rule="evenodd" clip-rule="evenodd" d="M5.26 21.975c-1.423 0-2.606 1.168-2.606 2.655 0 1.475 1.172 2.655 2.605 2.655h19.465c1.423 0 2.606-1.169 2.606-2.655a2.668 2.668 0 00-1.594-2.451 2.572 2.572 0 00-1.012-.204H5.26zM.653 24.63c0-2.571 2.058-4.655 4.605-4.655h19.465c.63 0 1.245.127 1.8.366a4.668 4.668 0 012.806 4.289c0 2.57-2.059 4.655-4.606 4.655H5.26c-2.57 0-4.605-2.107-4.605-4.655z"/><path fill-rule="evenodd" clip-rule="evenodd" d="M15.058 39.267V28.285h2v10.982h-2z"/><path fill-rule="evenodd" clip-rule="evenodd" d="M16.058 38.183l10.471 4.333-.765 1.848-9.705-4.016-9.69 4.016-.765-1.847 10.454-4.334zm11.288-13.554v-8.065h2v8.065h-2zM.654 24.63v-8.066h2v8.066h-2z"/></symbol><symbol viewBox="0 0 38 34" id="icon-sc12-icon-3" xmlns="http://www.w3.org/2000/svg"><path fill-rule="evenodd" clip-rule="evenodd" d="M4.423 2.2a2.233 2.233 0 00-2.228 2.237v25.054c0 1.239 1 2.238 2.228 2.238h29.154a2.233 2.233 0 002.228-2.238V4.437c0-1.239-1-2.238-2.228-2.238H4.423zM.195 4.436A4.233 4.233 0 014.423.2h29.154c2.338 0 4.228 1.9 4.228 4.238v25.054a4.233 4.233 0 01-4.228 4.238H4.423a4.233 4.233 0 01-4.228-4.24V4.437z"/><path fill-rule="evenodd" clip-rule="evenodd" d="M20 1v32h-2V1h2zm6.446 12.025c-.837 1.106-1.384 2.68-1.384 4.46 0 1.782.547 3.355 1.384 4.462.837 1.105 1.918 1.699 3.031 1.699v2c-1.875 0-3.502-1.008-4.625-2.493-1.124-1.484-1.79-3.49-1.79-5.667 0-2.176.666-4.183 1.79-5.668 1.123-1.485 2.75-2.492 4.625-2.492v2c-1.113 0-2.194.594-3.03 1.7z"/><path fill-rule="evenodd" clip-rule="evenodd" d="M31.285 14.877c-.481.635-.808 1.558-.808 2.62s.327 1.984.808 2.619c.48.634 1.07.938 1.647.938v2c-1.337 0-2.473-.715-3.242-1.73-.768-1.015-1.213-2.37-1.213-3.827 0-1.457.445-2.813 1.213-3.827.77-1.016 1.905-1.73 3.242-1.73v2c-.576 0-1.168.304-1.648.937z"/></symbol><symbol viewBox="0 0 31 45" id="icon-sc12-icon-4" xmlns="http://www.w3.org/2000/svg"><path fill-rule="evenodd" clip-rule="evenodd" d="M2.002 26.477v.002l3.662 15.184c.004.018.044.128.258.253.207.121.514.213.877.213h16.777c.363 0 .67-.092.877-.213.215-.125.255-.235.259-.253v-.002l3.661-15.182v-.002c.003-.012.003-.022-.005-.043a.46.46 0 00-.138-.165c-.185-.153-.53-.3-.991-.3H3.137c-.462 0-.807.147-.992.3a.46.46 0 00-.137.165c-.01.021-.009.03-.006.043zM.87 24.727c.592-.49 1.407-.758 2.266-.758h24.102c.858 0 1.673.269 2.266.759.598.494 1.03 1.29.815 2.208l-.001.006-3.662 15.186v.001c-.167.695-.659 1.2-1.195 1.514a3.762 3.762 0 01-1.886.486H6.8c-.68 0-1.343-.169-1.886-.486-.536-.313-1.028-.819-1.194-1.514v-.001L.054 26.936c-.215-.918.218-1.714.816-2.208z"/><path fill-rule="evenodd" clip-rule="evenodd" d="M16.188 0v24.97h-2V0h2z"/><path fill-rule="evenodd" clip-rule="evenodd" d="M24.802 5.55c-2.311.073-4.832.585-6.422 2.112-1.58 1.517-2.108 3.911-2.183 6.113a18.533 18.533 0 00.179 3.2 21.045 21.045 0 003.385.176c2.311-.072 4.832-.584 6.422-2.11 1.58-1.518 2.108-3.912 2.183-6.114a18.519 18.519 0 00-.179-3.2 21.055 21.055 0 00-3.385-.176zm4.25-.7c.979-.208.98-.207.98-.207v.003l.001.006.004.02a6.715 6.715 0 01.061.332 20.533 20.533 0 01.266 3.99c-.08 2.359-.64 5.42-2.796 7.489-2.145 2.059-5.307 2.591-7.745 2.668a23.063 23.063 0 01-4.133-.254 14.133 14.133 0 01-.268-.045l-.074-.013-.02-.004-.007-.001h-.002s-.002-.001.19-.982l-.977.207-.001-.003-.001-.006-.005-.02a18.573 18.573 0 01-.194-1.261 20.52 20.52 0 01-.133-3.062c.08-2.358.641-5.419 2.797-7.488 2.145-2.059 5.307-2.591 7.744-2.668a23.053 23.053 0 014.134.254 13.727 13.727 0 01.342.058l.02.004.007.001h.002s.001.001-.191.982zM15.51 17.852l-.978.207.137.647.649.127.192-.981zM29.053 4.85l.192-.98.648.126.138.647-.978.207z"/><path fill-rule="evenodd" clip-rule="evenodd" d="M6.806 5.008c1.916.06 3.963.485 5.242 1.713 1.268 1.218 1.705 3.158 1.767 4.98a15.283 15.283 0 01-.13 2.512l-.28.033c-.613.067-1.457.125-2.388.096-1.915-.06-3.962-.485-5.241-1.713-1.269-1.218-1.706-3.158-1.768-4.98a15.272 15.272 0 01.13-2.512l.281-.033a17.38 17.38 0 012.387-.096zm-3.537-.75L2.29 4.05l-.001.003-.001.006-.004.018a6.219 6.219 0 00-.052.281 17.273 17.273 0 00-.224 3.36c.067 1.977.538 4.584 2.382 6.354 1.833 1.76 4.522 2.206 6.564 2.27a19.383 19.383 0 003.702-.252l.063-.011.018-.004h.006l.002-.001-.191-.982.978.208v-.003l.002-.006.003-.018a6.303 6.303 0 00.052-.281 17.268 17.268 0 00.224-3.36c-.067-1.977-.537-4.583-2.381-6.354-1.834-1.76-4.523-2.205-6.565-2.27a19.379 19.379 0 00-3.702.252 6.784 6.784 0 00-.063.011l-.018.004H3.08l-.002.001s-.002 0 .19.982zm11.286 10.834l.978.208-.138.646-.648.127-.192-.98zM3.269 4.258l-.193-.982-.648.128-.137.646.978.208z"/></symbol><symbol viewBox="0 0 42 34" id="icon-sc12-icon-5" xmlns="http://www.w3.org/2000/svg"><path fill-rule="evenodd" clip-rule="evenodd" d="M3.582 4.087a.779.779 0 00-.768.79v25.508c0 .448.356.79.768.79h6.53a.779.779 0 00.768-.79V4.877a.779.779 0 00-.768-.79h-6.53zm-2.768.79c0-1.529 1.227-2.79 2.768-2.79h6.53c1.54 0 2.768 1.261 2.768 2.79v25.508c0 1.528-1.227 2.79-2.768 2.79h-6.53c-1.54 0-2.768-1.261-2.768-2.79V4.877z"/><path fill-rule="evenodd" clip-rule="evenodd" d="M13.647 4.087a.779.779 0 00-.767.79v25.508c0 .448.355.79.767.79h6.53a.779.779 0 00.768-.79V4.877a.779.779 0 00-.767-.79h-6.531zm-2.767.79c0-1.529 1.226-2.79 2.767-2.79h6.53c1.541 0 2.768 1.261 2.768 2.79v25.508c0 1.528-1.227 2.79-2.767 2.79h-6.531c-1.54 0-2.767-1.261-2.767-2.79V4.877z"/><path fill-rule="evenodd" clip-rule="evenodd" d="M25.036 4.67a.785.785 0 00-.526.972l6.88 24.536c.121.43.555.662.953.547l6.282-1.808a.785.785 0 00.526-.972L32.27 3.408a.772.772 0 00-.952-.546L25.036 4.67zm-2.448 1.525c-.413-1.473.428-3.025 1.908-3.45l6.282-1.81c1.48-.426 3 .446 3.414 1.92l6.88 24.536c.414 1.473-.428 3.025-1.907 3.45l-6.282 1.809a2.757 2.757 0 01-3.414-1.92L22.588 6.196z"/></symbol><symbol viewBox="0 0 38 39" id="icon-sc14-icon-1" xmlns="http://www.w3.org/2000/svg"><path fill-rule="evenodd" clip-rule="evenodd" d="M0 4.95a4 4 0 014-4h30a4 4 0 014 4v30a4 4 0 01-4 4H4a4 4 0 01-4-4v-30zm4-2a2 2 0 00-2 2v30a2 2 0 002 2h30a2 2 0 002-2v-30a2 2 0 00-2-2H4z"/><path fill-rule="evenodd" clip-rule="evenodd" d="M14 2.85v-.9h2v.9h-2zm0 3.6v-1.8h2v1.8h-2zm0 3.6v-1.8h2v1.8h-2zm0 3.6v-1.8h2v1.8h-2zm0 3.6v-1.8h2v1.8h-2zm0 2.7v-.9h2v.9h-2z"/><path fill-rule="evenodd" clip-rule="evenodd" d="M26 21.95v15h2v-15a3 3 0 00-3-3H2v2h23a1 1 0 011 1z"/></symbol><symbol viewBox="0 0 38 39" id="icon-sc14-icon-2" xmlns="http://www.w3.org/2000/svg"><path fill-rule="evenodd" clip-rule="evenodd" d="M0 4.95a4 4 0 014-4h16v38H4a4 4 0 01-4-4v-30zm4-2a2 2 0 00-2 2v30a2 2 0 002 2h14v-34H4zm31.531-1.697A3.991 3.991 0 0034 .95h-1v2h1c.273 0 .53.054.765.152l.766-1.848zM31 .95h-2v2h2v-2zm-4 0h-2v2h2v-2zm-4 0h-1v2h1v-2zm15 4c0-.54-.108-1.058-.304-1.531l-1.847.766c.097.234.151.492.151.765v.938h2V4.95zm0 4.688V7.762h-2v1.875h2zm0 3.75v-1.875h-2v1.875h2zm0 3.75v-1.875h-2v1.875h2zm0 3.75v-1.875h-2v1.875h2zm0 3.75v-1.875h-2v1.875h2zm0 3.75v-1.875h-2v1.875h2zm0 3.75v-1.875h-2v1.875h2zm0 2.812v-.937h-2v.937a2 2 0 01-.151.766l1.847.766c.196-.473.304-.991.304-1.532zm-4 4a3.99 3.99 0 001.531-.304l-.766-1.847a1.991 1.991 0 01-.765.151h-1v2h1zm-5 0h2v-2h-2v2zm-4 0h2v-2h-2v2zm-3 0h1v-2h-1v2z"/></symbol><symbol viewBox="0 0 33 36" id="icon-sc14-icon-3" xmlns="http://www.w3.org/2000/svg"><path fill-rule="evenodd" clip-rule="evenodd" d="M5 5.615A2.333 2.333 0 002.667 7.95v23.333A2.333 2.333 0 005 33.615h6.167v2H5a4.333 4.333 0 01-4.333-4.333V7.949A4.333 4.333 0 015 3.615h23.333a4.333 4.333 0 014.334 4.334v10h-2v-10a2.333 2.333 0 00-2.334-2.334H5z"/><path fill-rule="evenodd" clip-rule="evenodd" d="M28.38 17.535l4.27 4.271-1.414 1.415-2.857-2.858-8.4 8.4-1.414-1.414 9.814-9.814z"/><path fill-rule="evenodd" clip-rule="evenodd" d="M25.167 20.75l3.914 3.914-1.414 1.414-3.915-3.914 1.415-1.414zm-8.214 6.342a3.286 3.286 0 100 6.571 3.286 3.286 0 000-6.571zm-5.286 3.286a5.286 5.286 0 1110.571 0 5.286 5.286 0 01-10.571 0zM24.334.283V8.95h-2V.283h2zM11 .283V8.95H9V.283h2zM.667 13.615h32v2h-32v-2z"/></symbol><symbol viewBox="0 0 40 33" id="icon-sc14-icon-4" xmlns="http://www.w3.org/2000/svg"><path fill-rule="evenodd" clip-rule="evenodd" d="M.667 1.95a1 1 0 011-1h25a1 1 0 011 1v21.666a1 1 0 01-1 1h-25a1 1 0 01-1-1V1.949zm2 1v19.666h23V2.949h-23z"/><path fill-rule="evenodd" clip-rule="evenodd" d="M25.667 10.283a1 1 0 011-1h6.666a1 1 0 01.708.293l5 5a1 1 0 01.292.707v8.333a1 1 0 01-1 1H26.667a1 1 0 01-1-1V10.283zm2 1v11.333h9.666v-6.919l-4.414-4.414h-5.252zm-18.5 13.332a3.167 3.167 0 100 6.334 3.167 3.167 0 000-6.334zM4 27.782a5.167 5.167 0 1110.333 0 5.167 5.167 0 01-10.333 0z"/><path fill-rule="evenodd" clip-rule="evenodd" d="M30.833 24.615a3.167 3.167 0 100 6.334 3.167 3.167 0 000-6.334zm-5.166 3.167a5.167 5.167 0 1110.333 0 5.167 5.167 0 01-10.333 0z"/></symbol><symbol viewBox="0 0 32 37" id="icon-sc14-icon-5" xmlns="http://www.w3.org/2000/svg"><path fill-rule="evenodd" clip-rule="evenodd" d="M13.835 1.865a4.334 4.334 0 014.33 0h.002l11.666 6.667A4.333 4.333 0 0132 12.281v13.336a4.333 4.333 0 01-2.167 3.748l-.003.003-11.663 6.664-.003.002a4.334 4.334 0 01-4.328 0l-.003-.002-11.662-6.664-.004-.003A4.333 4.333 0 010 25.616V12.281a4.333 4.333 0 012.167-3.749l.004-.002 11.662-6.664.002-.001zM16 3.285c-.41 0-.812.108-1.167.313l-.004.002-11.662 6.664-.002.001A2.334 2.334 0 002 12.282v13.332a2.334 2.334 0 001.165 2.017l.002.001L14.833 34.3a2.333 2.333 0 002.334 0l.003-.002 11.663-6.665h.002A2.334 2.334 0 0030 25.613v-13.33a2.333 2.333 0 00-1.165-2.018h-.002L17.171 3.6l-.004-.002A2.333 2.333 0 0016 3.285z"/><path fill-rule="evenodd" clip-rule="evenodd" d="M.584 27.866a1 1 0 001.367.365L16 20.104l14.05 8.127a1 1 0 101-1.731L16.5 18.083a1 1 0 00-1 0L.95 26.5a1 1 0 00-.366 1.366z"/><path fill-rule="evenodd" clip-rule="evenodd" d="M16 .95a1 1 0 011 1v16.8a1 1 0 11-2 0V1.95a1 1 0 011-1z"/></symbol><symbol viewBox="0 0 25 40" id="icon-sc15-icon-1" xmlns="http://www.w3.org/2000/svg"><path fill-rule="evenodd" clip-rule="evenodd" d="M5.489 23.658L2.38 37.634h20.215l.004-.004.002-.002-3.741-14.22m3.76 16.227c1.297-.018 2.247-1.253 1.916-2.51l-3.742-14.226c-1.025-3.882-4.548-6.588-8.59-6.588-4.15 0-7.766 2.873-8.667 6.912l-3.11 13.98v.003a1.995 1.995 0 001.953 2.429h20.24z"/><path fill-rule="evenodd" clip-rule="evenodd" d="M20.5 26.01H4.17v-2H20.5v2zM6.08 38.502l1.074-8.04 1.982.264-1.073 8.041-1.982-.265zm11.104.267l-1.087-8.041 1.982-.268 1.087 8.04-1.982.269zm-5.484-.134v-8.041h2v8.04h-2zM13.218 0v17.31h-2V0h2z"/></symbol><symbol viewBox="0 0 37 36" id="icon-sc15-icon-2" xmlns="http://www.w3.org/2000/svg"><path fill-rule="evenodd" clip-rule="evenodd" d="M7.467 1.28a1 1 0 011-1h20a1 1 0 011 1v11.666a1 1 0 01-2 0V2.279h-18v10.667a1 1 0 01-2 0V1.279z"/><path fill-rule="evenodd" clip-rule="evenodd" d="M5.133 13.945A2.333 2.333 0 002.8 16.28v8.333a2.333 2.333 0 002.333 2.333h3.334a1 1 0 110 2H5.133A4.333 4.333 0 01.8 24.612v-8.333a4.333 4.333 0 014.333-4.334H31.8a4.334 4.334 0 014.333 4.334v8.333a4.333 4.333 0 01-4.333 4.333h-3.333a1 1 0 110-2H31.8a2.333 2.333 0 002.333-2.333v-8.333a2.333 2.333 0 00-2.333-2.334H5.133z"/><path fill-rule="evenodd" clip-rule="evenodd" d="M7.467 21.28a1 1 0 011-1h20a1 1 0 011 1v13.333a1 1 0 01-1 1h-20a1 1 0 01-1-1V21.279zm2 1v11.333h18V22.279h-18z"/></symbol><symbol viewBox="0 0 35 35" id="icon-sc15-icon-3" xmlns="http://www.w3.org/2000/svg"><path fill-rule="evenodd" clip-rule="evenodd" d="M25.893 2.627a9 9 0 00-10.499 12.412 1 1 0 01-.204 1.119L3.675 27.675A2.536 2.536 0 007.26 31.26l11.516-11.516a1 1 0 011.12-.204 9 9 0 0012.411-10.5l-5.174 5.174a2.667 2.667 0 01-3.733 0l-.007-.007-2.674-2.674a2.667 2.667 0 010-3.733l.007-.007 5.167-5.167zm-4.27-2.12a11 11 0 016.506.8 1 1 0 01.295 1.618l-6.28 6.279a.667.667 0 000 .927l2.659 2.659a.667.667 0 00.928 0l6.279-6.28a1 1 0 011.618.295 11 11 0 01-13.91 14.825L8.674 32.675A4.535 4.535 0 112.26 26.26l11.044-11.044A11.001 11.001 0 0121.622.506z"/></symbol><symbol viewBox="0 0 37 36" id="icon-sc15-icon-4" xmlns="http://www.w3.org/2000/svg"><path fill-rule="evenodd" clip-rule="evenodd" d="M18.4 2.334c-8.653 0-15.667 7.014-15.667 15.667 0 8.652 7.014 15.666 15.667 15.666 8.652 0 15.666-7.014 15.666-15.666 0-8.653-7.014-15.667-15.666-15.667zM.733 18.001C.733 8.244 8.643.334 18.4.334c9.757 0 17.666 7.91 17.666 17.667 0 9.757-7.91 17.666-17.666 17.666-9.757 0-17.667-7.91-17.667-17.666z"/><path fill-rule="evenodd" clip-rule="evenodd" d="M18.4 10.334a1 1 0 011 1v13.333a1 1 0 11-2 0V11.334a1 1 0 011-1z"/><path fill-rule="evenodd" clip-rule="evenodd" d="M10.733 18a1 1 0 011-1h13.334a1 1 0 110 2H11.733a1 1 0 01-1-1z"/></symbol><symbol viewBox="0 0 33 41" id="icon-sc15-icon-5" xmlns="http://www.w3.org/2000/svg"><path fill-rule="evenodd" clip-rule="evenodd" d="M8.95.559l1.656 2.516a2.784 2.784 0 01-1.07 4.022.784.784 0 00-.301 1.132l1.656 2.516-1.667 1.099-1.656-2.517a2.784 2.784 0 011.07-4.021c.418-.21.56-.74.3-1.133L7.283 1.657 8.95.559zM.666 15.945h27v1c0 .363-.006.73-.019 1.1 1.27.21 2.465.747 3.38 1.614 1.237 1.173 1.884 2.882 1.552 4.944-.659 4.102-4.56 6.342-7.913 6.342h-.79c-2.126 2.96-5.285 5-9.71 5-5.121 0-8.546-2.73-10.638-6.461C1.464 25.8.667 21.114.667 16.944v-1zm24.436 12.984c2.514-.182 5.065-1.918 5.503-4.643.23-1.43-.212-2.471-.954-3.176-.545-.516-1.289-.884-2.133-1.056-.294 3.064-1.044 6.202-2.416 8.875zm.312-10.984v2h.105c-.3 3.045-1.076 6.093-2.46 8.56-1.814 3.236-4.64 5.44-8.893 5.44-4.254 0-7.08-2.204-8.894-5.44-1.687-3.008-2.47-6.882-2.59-10.56h22.732zM17.949.559l-1.667 1.098 1.657 2.516a.784.784 0 01-.302 1.133 2.784 2.784 0 00-1.07 4.021l1.657 2.517 1.667-1.099-1.656-2.516a.784.784 0 01.301-1.132 2.784 2.784 0 001.07-4.022L17.949.559zM7.667 38.945h13v2h-13v-2z"/></symbol><symbol viewBox="0 0 40 40" id="icon-sc15-icon-6" xmlns="http://www.w3.org/2000/svg"><path fill-rule="evenodd" clip-rule="evenodd" d="M5.424 2.34a2.75 2.75 0 00-2.751 2.75v29.82a2.75 2.75 0 002.75 2.75h29.82a2.75 2.75 0 002.75-2.75V5.09a2.75 2.75 0 00-2.75-2.75H5.423zM.673 5.09A4.75 4.75 0 015.423.34h29.82a4.75 4.75 0 014.75 4.75v29.82a4.75 4.75 0 01-4.75 4.75H5.423a4.75 4.75 0 01-4.75-4.75V5.09z"/><path fill-rule="evenodd" clip-rule="evenodd" d="M14.725 8.002h11.216v2.505h3.108v3.51h4.649v17.981H6.968V14.017h4.65v-3.51h3.107V8.002zm2 2v2.505h-3.108v3.51H8.97v13.981h22.729V16.017H27.05v-3.51h-3.108v-2.505h-7.216z"/><path fill-rule="evenodd" clip-rule="evenodd" d="M12.1 30.998v-3.121h2v3.121h-2zm4.889 0v-3.121h2v3.121h-2zm4.89 0v-3.121h2v3.121h-2zm4.876 0v-3.121h2v3.121h-2z"/></symbol><symbol viewBox="0 0 34 37" id="icon-sheet" xmlns="http://www.w3.org/2000/svg"><path fill-rule="evenodd" clip-rule="evenodd" d="M5.57 31.22c-1.254 1.075-2.51 2.664-3.769 5.273L0 35.625c1.349-2.797 2.758-4.63 4.27-5.924 1.51-1.293 3.068-2 4.607-2.61.293-.117.587-.23.881-.345 2.75-1.062 5.575-2.153 8.818-5.981 3.679-4.343 4.853-7.035 6.049-9.776l.005-.012c1.236-2.834 2.498-5.72 6.35-10.267l1.526 1.293c-3.669 4.33-4.841 7.018-6.036 9.756l-.008.02c-1.237 2.834-2.501 5.723-6.361 10.28-3.579 4.224-6.814 5.471-9.62 6.553-.293.113-.582.225-.867.338-1.476.586-2.787 1.196-4.044 2.271z"/><path fill-rule="evenodd" clip-rule="evenodd" d="M32.812.928l-.982.189-.133-.992.937-.125.178.928zM30.997 2.27c.049.358.103.808.154 1.334.14 1.455.253 3.487.142 5.792-.223 4.637-1.346 10.24-4.82 14.509-3.476 4.27-8.232 6.198-12.185 7.05a28.954 28.954 0 01-4.98.623 23.436 23.436 0 01-1.857-.004 8.299 8.299 0 01-.095-.005l-.021-.002H7.33l-.078.997-.077.997h.014l.034.003c.028.002.068.005.12.007.103.006.251.013.441.018.38.01.923.013 1.597-.012a30.965 30.965 0 005.327-.667c4.209-.907 9.45-2.994 13.315-7.743 3.866-4.75 5.035-10.857 5.267-15.675a42.648 42.648 0 00-.15-6.08 35.76 35.76 0 00-.296-2.3 12.92 12.92 0 00-.023-.132l-.007-.036-.002-.01V.927l-.983.189-.133-.992-.005.001-.01.001-.034.005c-.03.005-.073.01-.128.02a38.331 38.331 0 00-2.213.423 47.249 47.249 0 00-5.749 1.667c-4.5 1.625-10.039 4.428-13.874 9.14-5.213 6.406-5.83 14.55-5.71 19.03l1.999-.052c-.115-4.324.505-11.87 5.262-17.715 3.506-4.307 8.653-6.952 13.002-8.521a45.248 45.248 0 015.503-1.597c.492-.109.916-.193 1.257-.257z"/></symbol><symbol viewBox="0 0 40 41" id="icon-slippers" xmlns="http://www.w3.org/2000/svg"><path fill-rule="evenodd" clip-rule="evenodd" d="M8.627 2.763A6.627 6.627 0 002 9.389v10.522h1.623v6.355a5.004 5.004 0 1010.008 0V19.91h1.623V9.389a6.627 6.627 0 00-6.627-6.626zM15.63 21.91h1.622V9.389A8.627 8.627 0 100 9.39v12.522h1.623v4.355a7.004 7.004 0 1014.008 0V21.91zM31.373 9.505a6.627 6.627 0 00-6.626 6.627v10.52h1.622v6.356a5.004 5.004 0 1010.008 0v-6.355H38V16.132a6.627 6.627 0 00-6.627-6.627zm7.004 19.148H40V16.132a8.627 8.627 0 00-17.253 0v12.52h1.622v4.356a7.004 7.004 0 0014.008 0v-4.355z"/><path fill-rule="evenodd" clip-rule="evenodd" d="M14.343 21.839a17.407 17.407 0 00-11.017.107l-.652-1.892a19.407 19.407 0 0112.284-.118l.35.112-.615 1.904-.35-.113zm21.909 6.911a12.06 12.06 0 00-10.793.138l-.918-1.776a14.06 14.06 0 0112.583-.163l.312.151-.872 1.8-.312-.15zM15.22 16.77a18.616 18.616 0 00-13.838.154l-.764-1.848a20.617 20.617 0 0115.324-.17l.42.162-.723 1.864-.42-.162zm23 7a18.616 18.616 0 00-13.838.154l-.764-1.848a20.617 20.617 0 0115.324-.17l.42.162-.723 1.864-.42-.162z"/></symbol><symbol viewBox="0 0 40 40" id="icon-staff" xmlns="http://www.w3.org/2000/svg"><path fill-rule="evenodd" clip-rule="evenodd" d="M19.907-.36l18.338 16.912a3.859 3.859 0 011.234 2.851v15.883a3.857 3.857 0 01-3.857 3.857H4.193a3.857 3.857 0 01-3.857-3.857V19.403a3.857 3.857 0 011.234-2.85l.002-.002L19.907-.36zM2.93 18.019a1.857 1.857 0 00-.594 1.374v15.893a1.857 1.857 0 001.857 1.857h31.429a1.857 1.857 0 001.857-1.857V19.393a1.858 1.858 0 00-.594-1.373v-.001L19.907 2.36 2.93 18.02z"/><path fill-rule="evenodd" clip-rule="evenodd" d="M20 15a5 5 0 100 10 5 5 0 000-10zm-7 5a7 7 0 1114 0 7 7 0 01-14 0z"/><path fill-rule="evenodd" clip-rule="evenodd" d="M20 31a13.285 13.285 0 00-11.345 6.374l-.52.854-1.708-1.041.52-.854a15.285 15.285 0 0126.108 0l.52.854-1.708 1.04-.52-.853A13.286 13.286 0 0020 31z"/></symbol><symbol viewBox="0 0 32 19" id="icon-stature" xmlns="http://www.w3.org/2000/svg"><path fill-rule="evenodd" clip-rule="evenodd" d="M31.414 2.013L18.61 14.588a1 1 0 01-1.402 0l-5.663-5.561-9.558 9.387-1.401-1.427L10.845 6.912a1 1 0 011.401 0l5.663 5.561L30.013.586l1.401 1.427z"/><path fill-rule="evenodd" clip-rule="evenodd" d="M22 0h10v10h-2V2h-8V0z"/></symbol><symbol viewBox="0 0 14 9" id="icon-submenu" xmlns="http://www.w3.org/2000/svg"><path fill-rule="evenodd" clip-rule="evenodd" d="M.293 1.707L1.707.293 7 5.586 12.293.293l1.414 1.414L7 8.414.293 1.707z"/></symbol><symbol viewBox="0 0 28 28" id="icon-sun" xmlns="http://www.w3.org/2000/svg"><path fill-rule="evenodd" clip-rule="evenodd" d="M14 9.166a4.833 4.833 0 100 9.667 4.833 4.833 0 000-9.667zm-6.833 4.833a6.833 6.833 0 1113.666 0 6.833 6.833 0 01-13.666 0zM14 .166a1 1 0 011 1v2.333a1 1 0 11-2 0V1.166a1 1 0 011-1zM14 23.5a1 1 0 011 1v2.333a1 1 0 11-2 0V24.5a1 1 0 011-1zM4.216 4.217a1 1 0 011.415 0l1.656 1.656a1 1 0 11-1.414 1.415L4.216 5.63a1 1 0 010-1.414zm16.497 16.496a1 1 0 011.414 0l1.657 1.656a1 1 0 01-1.414 1.415l-1.657-1.657a1 1 0 010-1.414zM.167 14a1 1 0 011-1H3.5a1 1 0 110 2H1.167a1 1 0 01-1-1zM23.5 14a1 1 0 011-1h2.333a1 1 0 110 2H24.5a1 1 0 01-1-1zM7.287 20.713a1 1 0 010 1.414l-1.656 1.657a1 1 0 01-1.415-1.415l1.657-1.656a1 1 0 011.414 0zM23.784 4.217a1 1 0 010 1.414l-1.657 1.657a1 1 0 11-1.414-1.415l1.657-1.656a1 1 0 011.414 0z"/></symbol><symbol viewBox="0 0 14 14" id="icon-t" xmlns="http://www.w3.org/2000/svg"><path fill-rule="evenodd" clip-rule="evenodd" d="M.638 2.455C2.844 1.493 5 1.188 6.883 1.202c1.883-.014 4.04.291 6.245 1.253.263-.476.37-.765.37-.765A18.11 18.11 0 006.884.4 18.111 18.111 0 00.267 1.69s.076.234.37.765zm4.39.71l1.852 10.41 1.866-10.41c1.752 0 2.308.194 2.389.984 0 0 1.184-.441 1.78-1.338-2.329-1.079-4.67-1.128-4.67-1.128L6.881 3.344 5.517 1.683S3.177 1.73.847 2.81c.597.896 1.78 1.337 1.78 1.337.08-.79.637-.983 2.401-.983z"/></symbol><symbol viewBox="0 0 23 23" id="icon-table" xmlns="http://www.w3.org/2000/svg"><path fill-rule="evenodd" clip-rule="evenodd" d="M3.784 2.445c-.71 0-1.284.575-1.284 1.284v15.432c0 .71.575 1.284 1.284 1.284h15.432c.71 0 1.284-.575 1.284-1.284V3.73c0-.709-.575-1.284-1.284-1.284H3.784zM.5 3.73A3.284 3.284 0 013.784.445h15.432A3.284 3.284 0 0122.5 3.73v15.432a3.284 3.284 0 01-3.284 3.284H3.784A3.284 3.284 0 01.5 19.161V3.73z"/><path fill-rule="evenodd" clip-rule="evenodd" d="M10.5 13.443V1.445h2v11.998c0 .712.575 1.288 1.283 1.288H21.5v2h-7.717a3.286 3.286 0 01-3.283-3.288z"/><path fill-rule="evenodd" clip-rule="evenodd" d="M11.5 10.065h-10v-2h10v2z"/></symbol><symbol viewBox="0 0 40 40" id="icon-term" xmlns="http://www.w3.org/2000/svg"><path fill-rule="evenodd" clip-rule="evenodd" d="M20.001.068l18.337 16.913a3.857 3.857 0 011.235 2.854l-.007 1-2-.013.007-1a1.856 1.856 0 00-.594-1.374L20 2.789 3.024 18.448h-.001a1.857 1.857 0 00-.593 1.374v15.892a1.857 1.857 0 001.857 1.858H17v2H4.287A3.857 3.857 0 01.43 35.714V19.832a3.857 3.857 0 011.234-2.85l.002-.003L20.001.07z"/><path fill-rule="evenodd" clip-rule="evenodd" d="M34.712 21.586l4.272 4.271-1.414 1.414-2.858-2.857-8.4 8.4-1.414-1.414 9.814-9.814z"/><path fill-rule="evenodd" clip-rule="evenodd" d="M31.5 24.8l3.914 3.914L34 30.13l-3.914-3.915L31.5 24.8zm-8.214 6.343a3.286 3.286 0 100 6.571 3.286 3.286 0 000-6.571zM18 34.429a5.286 5.286 0 1110.571 0 5.286 5.286 0 01-10.571 0z"/></symbol><symbol viewBox="0 0 18 17" id="icon-tg" xmlns="http://www.w3.org/2000/svg"><path fill-rule="evenodd" clip-rule="evenodd" d="M17.262.371l-2.512 16.33-5.196-3.463-3.05 2.439-1.81-5.435L-.54 8 17.262.371zM4.54 8l1.768.758 1.188 3.565 1.951-1.56 3.804 2.535 1.488-9.669L4.538 8z"/></symbol><symbol viewBox="0 0 24 27" id="icon-user" xmlns="http://www.w3.org/2000/svg"><path fill-rule="evenodd" clip-rule="evenodd" d="M1.855 18.3a6.333 6.333 0 014.478-1.855H17a6.333 6.333 0 016.333 6.334v2.666a1 1 0 11-2 0V22.78A4.333 4.333 0 0017 18.445H6.333A4.334 4.334 0 002 22.78v2.666a1 1 0 11-2 0V22.78c0-1.68.667-3.291 1.855-4.479zm9.812-15.855a4.333 4.333 0 100 8.667 4.333 4.333 0 000-8.667zM5.333 6.78A6.333 6.333 0 1118 6.78a6.333 6.333 0 01-12.667 0z"/></symbol><symbol viewBox="0 0 20 16" id="icon-view" xmlns="http://www.w3.org/2000/svg"><path fill-rule="evenodd" clip-rule="evenodd" d="M2.39 8a18.988 18.988 0 002.055 2.413c1.539 1.518 3.48 2.837 5.485 2.837 2.005 0 3.947-1.319 5.485-2.837A18.996 18.996 0 0017.47 8a18.996 18.996 0 00-2.055-2.413C13.877 4.069 11.935 2.75 9.93 2.75c-2.005 0-3.946 1.319-5.485 2.837A18.988 18.988 0 002.391 8zm16.29 0c.848-.531.847-.532.847-.532l-.001-.002-.004-.005-.01-.018a7.434 7.434 0 00-.183-.275 20.99 20.99 0 00-2.509-3.005C15.19 2.556 12.757.75 9.93.75S4.67 2.556 3.04 4.163a20.987 20.987 0 00-2.652 3.22l-.039.06-.01.018-.004.005-.001.002L1.18 8l-.847-.531L0 8l.333.531L1.18 8l-.847.531.002.003.003.005.011.018a7.568 7.568 0 00.183.275 20.992 20.992 0 002.509 3.005c1.628 1.607 4.062 3.413 6.89 3.413 2.827 0 5.26-1.806 6.889-3.413a20.995 20.995 0 002.652-3.22l.04-.06.01-.018.004-.005v-.002s.002 0-.846-.532zm0 0l.848.531L19.86 8l-.333-.532L18.68 8z"/><path fill-rule="evenodd" clip-rule="evenodd" d="M9.93 6.5A1.5 1.5 0 008.43 8v1h-2V8a3.5 3.5 0 017 0v1h-2V8a1.5 1.5 0 00-1.5-1.5z"/></symbol><symbol viewBox="0 0 18 18" id="icon-wa" xmlns="http://www.w3.org/2000/svg"><path fill-rule="evenodd" clip-rule="evenodd" d="M9.414 2.722c-3.254 0-5.874 2.59-5.874 5.81 0 1.132.293 2.164.818 3.001l.25.4-.746 2.233 2.32-.746.376.203c.87.47 1.803.72 2.856.72 3.254 0 5.873-2.59 5.873-5.81 0-3.221-2.62-5.811-5.873-5.811zM1.54 8.532c0-4.346 3.537-7.81 7.874-7.81 4.336 0 7.873 3.464 7.873 7.81 0 4.348-3.537 7.811-7.873 7.811a7.857 7.857 0 01-3.417-.763L.713 17.278l1.706-5.104c-.58-1.088-.879-2.338-.879-3.641z"/><path fill-rule="evenodd" clip-rule="evenodd" d="M9.202 6.022l-.793.793a1 1 0 000 1.414L9.78 9.601a1 1 0 001.415 0l.792-.793 1.415 1.414-.793.793a3 3 0 01-4.243 0L6.994 9.643a3 3 0 010-4.242l.793-.793 1.415 1.414z"/></symbol><symbol viewBox="0 0 29 23" id="icon-wave" xmlns="http://www.w3.org/2000/svg"><path fill-rule="evenodd" clip-rule="evenodd" d="M3.881 19.473c1.11-2.069 4.542-3.021 6.86-.322 2.574 2.996 6.438 3.421 9.678 2.967 1.64-.23 3.182-.69 4.437-1.212 1.223-.508 2.276-1.118 2.854-1.702l-1.42-1.407c-.298.3-1.057.787-2.202 1.263a16.45 16.45 0 01-3.946 1.077c-2.947.413-5.957-.046-7.883-2.289-3.286-3.825-8.404-2.557-10.14.68l1.762.945zM2.314 4.582C4.46 1.575 8.69 1.489 10.74 3.876c2.497 2.906 5.763 3.729 8.588 3.594a12.63 12.63 0 003.809-.783c1.068-.403 1.995-.938 2.572-1.521l-1.42-1.407c-.299.301-.934.708-1.859 1.057-.904.341-2.012.6-3.198.656-2.363.113-4.97-.567-6.975-2.9C9.308-.86 3.538-.574.687 3.42l1.628 1.163zm3.507 5.631c1.747-.469 3.978-.294 6.572 1.882 3.497 2.932 7.059 3.269 9.935 2.686 2.83-.574 4.972-2.027 5.788-2.664l-1.232-1.577c-.684.535-2.542 1.792-4.953 2.28-2.365.48-5.285.23-8.252-2.258-3.067-2.571-5.965-2.928-8.376-2.28-2.337.626-4.084 2.158-5.022 3.13L1.719 12.8c.84-.87 2.28-2.1 4.102-2.588z"/></symbol><symbol viewBox="0 0 39 35" id="icon-window" xmlns="http://www.w3.org/2000/svg"><path fill-rule="evenodd" clip-rule="evenodd" d="M0 3a3 3 0 013-3h18v35H3a3 3 0 01-3-3V3zm3-1a1 1 0 00-1 1v29a1 1 0 001 1h16V2H3z"/><path fill-rule="evenodd" clip-rule="evenodd" d="M19 0h17a3 3 0 013 3v29a3 3 0 01-3 3H19V0zm2 2v31h15a1 1 0 001-1V3a1 1 0 00-1-1H21zm-6.707 24.707l-7-7 1.414-1.414 7 7-1.414 1.414z"/><path fill-rule="evenodd" clip-rule="evenodd" d="M33.293 26.707l-7-7 1.414-1.414 7 7-1.414 1.414zm-19-11l-7-7 1.414-1.414 7 7-1.414 1.414zm19 0l-7-7 1.414-1.414 7 7-1.414 1.414z"/></symbol><symbol viewBox="0 0 111 41" id="icon-wtr" xmlns="http://www.w3.org/2000/svg"><path fill-rule="evenodd" clip-rule="evenodd" d="M64.876.945v6.82h6.37v6.771h-6.37V29.43a4.619 4.619 0 001.371 3.276 4.703 4.703 0 003.306 1.36h1.725v6.83h-1.725c-6.38 0-11.57-5.143-11.57-11.466V.945h6.893zm-14.31 0l-9.68 39.842h-8.809l-6.39-22.934h-.311l-7.197 22.934h-8.066L0 1.007h7.011l7.445 30.987h.497l7.63-23.978-2.17-7.01h7.135l8.562 31.233h.558L43.803.945h6.763zm44.122.061c6.763 0 12.719 2.337 12.719 10.883 0 5.595-3.226 9.838-7.88 11.498l10.982 17.4h-8.128l-10.05-16.232h-3.972v16.232H81.41V1.007h13.278zm-1.55 5.595h-4.779v12.114h4.902c3.971 0 6.576-2.03 6.576-6.272 0-4.55-2.482-5.84-6.7-5.84v-.002z"/></symbol><symbol viewBox="0 0 20 8" id="icon-y" xmlns="http://www.w3.org/2000/svg"><path d="M2.385 4.306l-1.09 2.476H.499l1.2-2.646C1.13 3.843.76 3.32.76 2.355.76.999 1.605.32 2.62.32h1.03v6.46h-.693V4.307h-.572zM2.957.91h-.365c-.556 0-1.09.37-1.09 1.445 0 1.042.49 1.373 1.09 1.373h.365V.91zm4.007 1.318v4.554h-.687v-2.04H5.24v2.045h-.703v-4.56h.698v1.936H6.27V2.228h.693zM9.918 7.68v-.893h-1.93v.893h-.626V6.208h.278c.409-.964.458-2.376.458-3.589v-.391h2.093v3.975h.36V7.68h-.633zm-.42-4.884H8.72v.082c0 .96-.043 2.36-.42 3.325h1.2V2.796zm2.972 4.052c-.932 0-1.5-.75-1.5-2.15 0-1.467.404-2.53 1.358-2.53.752 0 1.243.567 1.243 2.116v.392h-1.875c0 1.03.283 1.57.84 1.57.392 0 .708-.181.882-.308l.164.54c-.295.227-.665.37-1.112.37zM11.7 4.09h1.156c0-.777-.125-1.345-.529-1.345-.43-.005-.583.53-.627 1.345zm3.276.425v2.271h-.697v-4.56h.697v2.107l1.08-2.106h.709l-1.118 2.145 1.276 2.414h-.758l-1.189-2.271zm2.04-.011c0-1.428.544-2.343 1.602-2.343.404 0 .633.11.829.237l-.098.667c-.186-.165-.458-.314-.742-.314-.501 0-.856.568-.856 1.72 0 1.14.267 1.791.829 1.791.338 0 .6-.137.758-.28l.163.523c-.24.21-.529.342-.937.342-.965 0-1.549-.788-1.549-2.343z"/></symbol></svg>